<?xml version="1.0" encoding="UTF-8"?>
<svg width="98px" height="123px" viewBox="0 0 98 123" version="1.1" xmlns="http://www.w3.org/2000/svg" xmlns:xlink="http://www.w3.org/1999/xlink">
    <title>savings</title>
    <g id="Design" stroke="none" stroke-width="1" fill="none" fill-rule="evenodd">
        <g id="Courses_1440" transform="translate(-1184.000000, -810.000000)" fill-rule="nonzero">
            <g id="savings" transform="translate(1184.000000, 810.000000)">
                <path d="M18.6160963,77 C15.2279361,77 12.1928975,75.5159974 10.1728011,73.1863769 C5.87586104,73.1808152 1.95061471,70.7414119 0.169195379,66.9688969 C-0.260724503,66.0582314 0.156897612,64.9841008 1.10206882,64.5698762 C2.04724002,64.1554098 3.16181924,64.5580274 3.59199009,65.468451 C4.45609643,67.2989708 6.08617794,68.6526365 8.01567243,69.2402406 C7.75265081,68.3327187 7.6121049,67.3765926 7.6121049,66.3892726 C7.6121049,66.3776656 7.6121049,66.3660586 7.61235588,66.3546934 C7.67208789,63.3521091 10.2001573,61 13.3682126,61 C16.5475617,61 19.1341083,63.4938111 19.1341083,66.5590249 C19.1341083,68.0689014 18.5209768,69.5202593 17.4515731,70.5411912 C17.4199502,70.571176 17.3873235,70.6001934 17.3536929,70.6282437 C16.5458049,71.2973386 15.6468131,71.8443182 14.6885912,72.2585428 C15.8204877,72.965844 17.1694774,73.3771669 18.6158453,73.3771669 C19.9495255,73.3771669 21.2520849,73.0253298 22.3829775,72.3593785 C23.2681657,71.8377892 24.9376503,70.7046564 25.7696318,69.9644687 C26.5325953,69.2859431 25.229785,74.9286351 24.3438438,75.4507081 C22.6229094,76.4641438 20.6422161,77 18.6160963,77 L18.6160963,77 Z M11.3727117,66.4086176 C11.3757234,67.4513126 11.6166593,68.4410507 12.0455753,69.329953 C13.0680467,69.068312 14.0260176,68.5921834 14.8457014,67.927683 C15.1822587,67.5833421 15.3742544,67.0881104 15.3742544,66.5590249 C15.3742544,65.4914232 14.4745096,64.6230749 13.3684636,64.6230749 C12.2563941,64.6230749 11.4013229,65.3896202 11.3727117,66.4086176 L11.3727117,66.4086176 Z" id="Shape" fill="#F2BB88"></path>
                <path d="M27.8693117,104.040981 C29.5674863,106.794826 31.8116525,109.178826 34.4515578,111.043764 C35.7007018,111.92629 36.3601847,113.420891 36.1225932,114.927518 L35.8149332,119.488874 C35.6881191,120.292621 36.3120743,121.019306 37.1292113,121.019306 L42.0998816,120.8107 C44.0652541,120.8107 46.7656059,121.366819 47.070552,119.433655 C47.070552,119.433655 48.2572757,118.536648 48.5464317,118.168765 C49.0687382,117.504417 49.8804474,117.085732 50.778262,117.085732 L61.5589444,117.085732 C62.456759,117.085732 63.2687149,117.504662 63.7910214,118.169011 C64.0801774,118.536894 64.7993665,118.757035 64.8765899,119.246154 C65.181536,121.179319 67.902859,122 69.8682315,122 L75.6007735,121.694453 C76.4179105,121.694453 77.0418657,120.967768 76.9150516,120.164021 L78.6462867,118.169011 L78.3963592,116.584096 C78.158521,115.075751 78.8204711,113.580904 80.0710954,112.697151 C84.0282395,109.900603 87.0952173,105.937824 88.7664994,101.311432 C89.3344491,99.7395237 90.8626336,97.5238818 92.5403304,97.5238818 L92.8339274,97.5238818 C95.0383716,97.5238818 98,96.9172063 98,94.7221796 L98,93.7363318 L98,82.6674484 C98,80.4724217 96.2130062,78.6931347 94.0085619,78.6931347 L92.7865571,78.6931347 C91.0516212,78.6931347 89.5271375,77.5732882 88.9870672,75.9316812 C87.9979662,72.9260358 86.4251254,70.183725 84.4020204,67.8375203 C83.6349676,66.9478767 83.5530565,65.6601637 84.1942821,64.6770156 L89.3006485,56.8474163 C89.7102039,56.2196347 89.5162819,55.379075 88.8725891,54.9920494 L88.8079484,54.9532732 C87.2508977,54.0167546 85.5946655,53.4243134 83.9211629,53.1477263 C79.4229616,52.4043524 75.8884492,54.5444053 72.741534,57.816821 C70.9483721,59.052996 68.304766,59.5202736 66.2611833,59.5173286 C66.2493407,59.5173286 66.2374981,59.5173286 66.2256556,59.5173286 L48.1191125,59.5173286 L46.0794772,59.6633528 C32.8530582,59.6633528 24,72.19616 24,85.3658293 L24.344668,91.5840081 C24.344668,98.5477695 27.2135296,102.923098 27.8693117,104.040981 L27.8693117,104.040981 Z" id="Path" fill="#F2D1A5"></path>
                <g id="Group" transform="translate(63.000000, 94.000000)" fill="#F2BB88">
                    <path d="M33.2882629,0.413152868 L31.7726448,0.413152868 C28.2649139,0.521481016 27.1489202,1.53626801 26.5725196,3.09196709 C26.1889202,4.12764247 25.9896088,6.64785068 25.4670423,7.6106596 C25.5902347,7.28130317 25.9598122,6.43070861 26.8885133,5.77442463 C27.8878247,5.06834856 28.9184351,5.02292847 29.2714867,5.02268558 L30.7871049,5.02268558 C33.0243505,5.02268558 34.8379343,3.26174596 34.8379343,1.08935368 L34.8379343,0.113671689 C34.3604382,0.305796274 33.8373709,0.413152868 33.2882629,0.413152868 L33.2882629,0.413152868 Z" id="Path"></path>
                    <path d="M0.120187793,24.2941659 C0.274929577,24.4848332 0.375086072,24.6599556 0.43943662,24.7899008 C0.57514867,25.0641216 0.633239437,25.3031236 0.684319249,25.5149221 C0.722128326,25.6708564 0.745665102,25.8032304 0.760438185,25.8986855 C0.848075117,26.2440726 1.14078247,27.1675336 2.03868545,27.937975 C2.7057277,28.5102197 3.5943662,28.9036986 4.64751174,28.9036986 L14.3616901,28.9036986 C15.1917371,28.9036986 15.8259781,28.1847495 15.6970266,27.3890477 L15.1962441,24.2941659 L3.19599374,24.2941659 L0.120187793,24.2941659 Z" id="Path"></path>
                </g>
                <g id="Group" transform="translate(21.000000, 53.000000)" fill="#F2BB88">
                    <path d="M49.7556663,6.6311853 L49.7916117,6.6311853 C51.8592208,6.63412092 53.8179952,5.79967424 55.2480728,4.33068506 C57.3131857,2.20949315 60.0060949,0.81825812 62.8854709,0.304393983 C58.2677356,-0.522694261 53.4952355,1.0090869 50.2616477,4.33068506 C48.8318197,5.79942895 46.8735445,6.63387563 44.8064347,6.6311853 L49.7556663,6.6311853 Z" id="Path"></path>
                    <path d="M17.0965287,63.634531 C17.3344173,62.1451835 17.176657,58.6953032 15.3728971,57.0690888 C12.9533226,54.8875577 5.61197486,50.8139274 5.17513846,40.3350235 L5.17513846,30.4639264 C5.17513846,17.3014008 16.0234089,6.63117754 29.4050808,6.63117754 L24.4184061,6.63117754 C11.0364845,6.63117754 0.188463705,17.3014008 0.188463705,30.4639264 L0.188463705,40.3350235 C0.188463705,47.2953684 3.09105439,51.6682418 3.75454648,52.7854977 C5.47668039,55.5441755 7.75372134,57.9314976 10.4326518,59.7973517 C11.6845001,60.6690812 12.347493,62.1451835 12.1096043,63.634531 L11.3522548,68.3772885 C11.2241993,69.1798486 11.8554904,69.9053904 12.6822345,69.9053904 L17.6689092,69.9053904 L22.8929733,69.9053904 C24.7791081,69.9053904 26.3080355,68.403043 26.3080355,66.5496982 C26.3374908,66.3645109 26.3956524,66.1194749 26.5169681,65.8491751 C26.6320433,65.5928562 26.7680867,65.3934426 26.8819138,65.2506889 L18.5026427,65.2506889 C17.6287203,65.2501983 16.9609846,64.483204 17.0965287,63.634531 L17.0965287,63.634531 Z" id="Path"></path>
                </g>
                <g id="Group" transform="translate(43.000000, 72.000000)" fill="#DF646E">
                    <ellipse id="Oval" cx="3.83699079" cy="4.15720171" rx="3.65570603" ry="3.75813644"></ellipse>
                    <ellipse id="Oval" cx="22.9175169" cy="23.7723513" rx="3.65570603" ry="3.75813644"></ellipse>
                    <path d="M1.87238123,27.7991231 C1.40465191,27.7991231 0.936922588,27.6155179 0.579720851,27.2488093 C-0.133950651,26.5151412 -0.133950651,25.3252194 0.579720851,24.5915513 L23.7319564,0.790605756 C24.4458719,0.0569376607 25.6031177,0.0569376607 26.3170331,0.790605756 C27.0307046,1.52427385 27.0307046,2.71419571 26.3170331,3.44786381 L3.16479763,27.2488093 C2.80783988,27.6155179 2.33986657,27.7991231 1.87238123,27.7991231 L1.87238123,27.7991231 Z" id="Path"></path>
                </g>
                <g id="Group" transform="translate(32.000000, 0.000000)">
                    <path d="M48.8652986,23.9585064 C48.8652986,10.72643 37.9696087,0 24.528984,0 C18.235368,0 12.5000184,2.35188804 8.17982652,6.21134617 C3.2736299,10.5945668 0.691710501,16.9222773 0.691710501,23.9582604 C0.691710501,37.1900908 11.0883592,47.425232 24.528984,47.425232 C30.698152,47.425232 36.3312944,45.6568877 40.6207491,41.9319989 C45.6763832,37.5421359 48.8652986,31.1167581 48.8652986,23.9585064 L48.8652986,23.9585064 Z" id="Path" fill="#FFD064"></path>
                    <path d="M27.773626,44.9680502 C14.3330013,44.9680502 3.4370615,34.2416202 3.4370615,21.0095438 C3.4370615,14.8319015 5.81256728,9.20090093 9.71268498,4.9520036 C3.92410766,9.33178005 0.192169572,16.2154808 0.192169572,23.9582604 C0.192169572,37.1900908 11.0878594,47.9167667 24.5287341,47.9167667 C31.6942351,47.9167667 38.136039,44.8676767 42.5894252,40.0158006 C38.4861425,43.1209817 33.3492924,44.9680502 27.773626,44.9680502 L27.773626,44.9680502 Z" id="Path" fill="#FFC250"></path>
                    <path d="M41.3771825,23.9585064 C41.3771825,14.7979517 33.8338396,7.37179135 24.5287341,7.37179135 C20.7530643,7.37179135 17.2672732,8.59447791 14.4581989,10.6595143 C10.3441707,13.683757 8.17982652,18.514722 8.17982652,23.9582604 C8.17982652,33.1188151 15.2238784,40.0534406 24.528984,40.0534406 C28.9951148,40.0534406 33.0554154,38.8341983 36.0704036,36.0419462 C39.3372863,33.0169656 41.3771825,28.7223097 41.3771825,23.9585064 L41.3771825,23.9585064 Z" id="Path" fill="#FFC250"></path>
                    <path d="M28.0232715,37.5962589 C18.7181659,37.5962589 11.174823,30.1700986 11.174823,21.0095438 C11.174823,16.787954 12.7796514,12.9371063 15.4177972,10.0093009 C10.7644948,12.9612157 7.68028559,18.1033876 7.68028559,23.9582604 C7.68028559,33.1188151 15.2236285,40.5449754 24.5287341,40.5449754 C29.5456344,40.5449754 34.0475002,38.3839938 37.1339584,34.9587493 C34.506808,36.625244 31.3811162,37.5962589 28.0232715,37.5962589 Z" id="Path" fill="#EBB044"></path>
                    <path d="M26.571879,22.1220164 C26.1008261,21.9581715 25.675754,21.8336887 25.3009109,21.7239667 C24.2740906,21.4230923 23.9012467,21.2986096 23.5556413,20.8929335 C23.470427,20.792806 23.3672202,20.4776629 23.453684,20.057718 C23.4984153,19.8399962 23.6613471,19.304179 24.2043698,19.0308581 C24.9882917,18.6362526 25.8999102,19.3477234 26.0013677,19.4301378 C26.7980343,20.0783831 27.9782903,19.9674311 28.6367647,19.1826484 C29.2952392,18.3978656 29.1825363,17.2361904 28.3851201,16.5881911 C27.845346,16.1490572 27.1723776,15.759618 26.4234411,15.5091764 L26.4234411,15.0872634 C26.4234411,14.069506 25.5852919,13.2443771 24.5514746,13.2443771 C23.5176572,13.2443771 22.679508,14.069506 22.679508,15.0872634 L22.679508,15.6685931 C22.619783,15.6959005 22.5598081,15.7190258 22.5000831,15.7490394 C21.0966705,16.4553439 20.1065849,17.7589689 19.7842198,19.3253361 C19.4855948,20.7765691 19.8232035,22.2482213 20.6878416,23.2622885 C21.773887,24.5361458 23.0238639,24.9024598 24.2331078,25.256473 C24.5822117,25.3585686 24.9425609,25.4643544 25.3254006,25.5972016 C26.2987433,25.935716 26.3982016,26.6225854 26.3099886,27.1394596 C26.1835415,27.8811899 25.5485572,28.6829476 24.4537654,28.690082 C23.1663043,28.6991845 22.8636809,28.6514579 21.9213253,28.0455269 C21.0556876,27.4887986 19.8956731,27.7281696 19.3301598,28.580114 C18.7646465,29.4320584 19.0077947,30.5742986 19.8731825,31.1310269 C20.9294904,31.8105159 21.7566443,32.1313173 22.679508,32.2737591 L22.679508,32.7852209 C22.679508,33.8029783 23.5176572,34.6281073 24.5514746,34.6281073 C25.5852919,34.6281073 26.4234411,33.8029783 26.4234411,32.7852209 L26.4234411,32.0274997 C28.4226044,31.2963479 29.7010693,29.5139808 30.0019434,27.7500648 C30.4295144,25.2456485 29.0510913,22.9838013 26.571879,22.1220164 L26.571879,22.1220164 Z" id="Path" fill="#FFD064"></path>
                </g>
            </g>
        </g>
    </g>
</svg>