<?xml version="1.0" encoding="UTF-8"?>
<svg width="77px" height="120px" viewBox="0 0 77 120" version="1.1" xmlns="http://www.w3.org/2000/svg" xmlns:xlink="http://www.w3.org/1999/xlink">
    <title>rate</title>
    <g id="Design" stroke="none" stroke-width="1" fill="none" fill-rule="evenodd">
        <g id="Courses_1440" transform="translate(-681.000000, -806.000000)" fill-rule="nonzero">
            <g id="rate" transform="translate(681.000000, 806.000000)">
                <path d="M36.290892,2.73252231 L12.2454746,27.1793211 C10.7764489,28.6982843 10.3299337,31.4349777 12.4477869,31.4349777 L23.263881,31.4349777 C23.6535108,31.4349777 24.0214812,31.5274095 24.3468471,31.6914168 C25.1292008,32.0855556 26.4251899,32.4792205 26.4251899,33.412071 L27.3165543,114.074254 C27.3165543,115.394844 28.3916659,116.465632 29.7181209,116.465632 L31.6160487,118 L47.9745491,118 C49.300766,118 50.3761156,116.92945 50.3761156,115.608622 L50.3761156,106.140284 L42.8434319,71.8675072 L50.3761156,41.3716372 L50.3761156,33.8263552 C50.3761156,32.505765 51.4512272,31.4349777 52.7776822,31.4349777 L63.5937763,31.4349777 C65.7113915,31.4349777 66.7924535,28.9040044 65.3236658,27.3850412 L40.9954871,2.22865029 L39.7504332,2.73252231 C38.8059915,1.7558259 37.2355717,1.7558259 36.290892,2.73252231 L36.290892,2.73252231 Z" id="Path" fill="#B3E59F"></path>
                <path d="M41,2.00470588 L12.7200753,31 L12.4101975,31 C10.2887264,31 9.20653778,28.4870588 10.6772655,26.9811765 L36.2874738,0.727058824 C37.2337929,-0.242352941 38.8070187,-0.242352941 39.7533378,0.727058824 L41,2.00470588 Z" id="Path" fill="#95D6A4"></path>
                <path d="M14,107 C12.8954667,107 12,106.199184 12,105.211399 L12,81.7886007 C12,80.8008161 12.8954667,80 14,80 C15.1045333,80 16,80.8008161 16,81.7886007 L16,105.211399 C16,106.199184 15.1045333,107 14,107 Z" id="Path" fill="#B3E59F"></path>
                <path d="M2,120 C0.895466667,120 0,119.189806 0,118.190455 L0,89.8095454 C0,88.8101938 0.895466667,88 2,88 C3.10453333,88 4,88.8101938 4,89.8095454 L4,118.190455 C4,119.189806 3.10453333,120 2,120 Z" id="Path" fill="#B3E59F"></path>
                <path d="M63,107 C61.8952,107 61,106.199184 61,105.211399 L61,81.7886007 C61,80.8008161 61.8952,80 63,80 C64.1048,80 65,80.8008161 65,81.7886007 L65,105.211399 C65,106.199184 64.1048,107 63,107 Z" id="Path" fill="#B3E59F"></path>
                <path d="M75,120 C73.8952,120 73,119.189806 73,118.190455 L73,89.8095454 C73,88.8101938 73.8952,88 75,88 C76.1048,88 77,88.8101938 77,89.8095454 L77,118.190455 C77,119.189806 76.1048,120 75,120 Z" id="Path" fill="#B3E59F"></path>
                <path d="M38.0940216,38.8770431 C36.1731367,38.8770431 34.2769028,39.0349651 32.4188307,39.3427105 C31.8414274,39.4382259 31.3173558,38.9925667 31.3173558,38.4044682 L31.3173558,33.4033676 C31.3173558,32.0759179 30.2466948,31 28.9257308,31 L23,31 C24.3202528,31 25.391625,32.0766324 25.391625,33.4033676 L25.391625,41.2923203 L25.391625,105.775934 L25.391625,115.596632 C25.391625,116.924082 26.462286,118 27.7832499,118 L31.3173558,118 L31.3173558,108.663786 C31.3173558,108.075926 31.8416645,107.630029 32.4188307,107.725544 C34.2769028,108.033051 36.1731367,108.191211 38.0940216,108.191211 C42.2230708,108.191211 46.2383461,107.467105 50,106.080821 L50,40.9874333 C46.2383461,39.6011499 42.2230708,38.8770431 38.0940216,38.8770431 Z" id="Path" fill="#95D6A4"></path>
                <g id="Group" transform="translate(8.000000, 43.000000)">
                    <path d="M52.0289172,9.23652199 C40.171631,-2.81514589 20.9469585,-2.81514589 9.0896724,9.23652199 C-2.76761374,21.2881899 -1.5535781,40.3810847 10.3039443,52.4329927 C22.1614667,64.4849007 40.171631,64.9315968 52.0291534,52.8799289 C63.8866759,40.8282611 63.8864396,21.2881899 52.0289172,9.23652199 L52.0289172,9.23652199 Z" id="Path" fill="#F7F9FA"></path>
                    <path d="M53.398665,51.3899814 C52.9638994,51.8967173 52.5055053,52.3938468 52.0282083,52.8789683 C40.1713947,64.9325575 20.9471948,64.9325575 9.09038126,52.8789683 C-2.76879516,40.8277808 -2.76879516,21.28843 9.09038126,9.23724247 C9.56767825,8.75212093 10.0567895,8.28621212 10.5553522,7.84431923 C0.0855354027,19.965153 0.54392955,38.4309922 11.925809,49.9970582 C23.3053255,61.5655258 41.4733286,62.0314346 53.398665,51.3899814 Z" id="Path" fill="#E9EDF1"></path>
                    <path d="M47.0260412,14.3214123 C37.9316431,5.07792566 23.1867101,5.07792566 14.092312,14.3214123 C4.99791392,23.5648989 6.03544418,37.4256858 15.1298423,46.6691724 C24.2242404,55.912659 37.9316431,57.0385253 47.0258049,47.7950387 C56.1199668,38.5515521 56.1204393,23.5648989 47.0260412,14.3214123 L47.0260412,14.3214123 Z" id="Path" fill="#E9EDF1"></path>
                    <path d="M48.4910122,46.1617161 C48.0326181,46.7236886 47.5435068,47.2688499 47.0260412,47.7947985 C37.9314068,57.0385253 23.1871827,57.0385253 14.0925483,47.7947985 C4.99791392,38.5510717 4.99791392,23.565139 14.0925483,14.3214123 C14.6100139,13.7954637 15.1463823,13.2983342 15.6992907,12.8324254 C8.09798156,22.1313887 8.58709284,35.954951 17.1642617,44.6727292 C25.7414305,53.3905074 39.3420321,53.8876369 48.4910122,46.1617161 Z" id="Path" fill="#DCE6EB"></path>
                    <g transform="translate(16.539995, 16.811142)" fill="#DF646E">
                        <path d="M5.78474511,11.6208223 C4.33678669,11.6208223 2.88906456,11.0607711 1.78679203,9.9406687 C-0.417516731,7.70022373 -0.417516731,4.05436724 1.78679203,1.81392227 C3.9911008,-0.426042382 7.57768057,-0.4265227 9.7824619,1.81392227 C11.9867707,4.05436724 11.9867707,7.70022373 9.7824619,9.9406687 C8.67995309,11.0607711 7.23223096,11.6208223 5.78474511,11.6208223 Z M5.78474511,3.73423506 C5.24459613,3.73423506 4.70444715,3.94317354 4.29307385,4.36129067 C3.47056352,5.19704461 3.47056352,6.5573062 4.29307385,7.39306014 C5.1151116,8.2292944 6.45343348,8.22977471 7.2759438,7.39306014 C8.09845413,6.5573062 8.09845413,5.19704461 7.2759438,4.36129067 C6.86480678,3.94317354 6.3246578,3.73423506 5.78474511,3.73423506 Z" id="Shape"></path>
                        <path d="M22.2522004,28.3584761 C20.8044783,28.3584761 19.3567562,27.7984249 18.2544836,26.6783225 C16.0501749,24.4378775 16.0501749,20.792021 18.2544836,18.551576 C20.459265,16.3113712 24.0458447,16.3113712 26.2501535,18.551576 C28.4544623,20.792021 28.4544623,24.4378775 26.2501535,26.6783225 C25.147881,27.7984249 23.7001588,28.3584761 22.2522004,28.3584761 Z M22.2522004,20.4718888 C21.7122877,20.4718888 21.1721388,20.6808273 20.7607654,21.0989444 C19.9382551,21.9346984 19.9382551,23.29496 20.7607654,24.1307139 C21.5832758,24.9669482 22.9215977,24.9669482 23.7436354,24.1307139 C24.5661457,23.29496 24.5661457,21.9346984 23.7436354,21.0989444 C23.3324984,20.6808273 22.7923494,20.4718888 22.2522004,20.4718888 Z" id="Shape"></path>
                        <path d="M3.13220248,27.113731 C2.67877033,27.113731 2.2251019,26.9379345 1.87894343,26.5863415 C1.18686278,25.8826751 1.18686278,24.7423993 1.87894343,24.0389731 L23.653138,1.90782451 C24.3454549,1.20463844 25.4673392,1.20463844 26.1594198,1.90782451 C26.8515005,2.6114909 26.8515005,3.75176668 26.1594198,4.45519291 L4.38522525,26.5863415 C4.03930307,26.9379345 3.58563463,27.113731 3.13220248,27.113731 L3.13220248,27.113731 Z" id="Path"></path>
                    </g>
                </g>
            </g>
        </g>
    </g>
</svg>