<?xml version="1.0" encoding="UTF-8"?>
<svg width="84px" height="132px" viewBox="0 0 84 132" version="1.1" xmlns="http://www.w3.org/2000/svg" xmlns:xlink="http://www.w3.org/1999/xlink">
    <title>online-banking</title>
    <g id="Design" stroke="none" stroke-width="1" fill="none" fill-rule="evenodd">
        <g id="Courses_1440-Copy" transform="translate(-198.000000, -880.000000)" fill-rule="nonzero">
            <g id="online-banking" transform="translate(198.000000, 880.000000)">
                <path d="M11.7402597,130 C6.36077922,130 2,125.676072 2,120.342052 L2,11.6579477 C2,6.32392757 6.36077922,2 11.7402597,2 L72.2597403,2 C77.6392208,2 82,6.32392757 82,11.6579477 L82,120.342052 C82,125.676072 77.6392208,130 72.2597403,130 L11.7402597,130 Z" id="Path" fill="#F7F9FA"></path>
                <g id="Group" transform="translate(17.000000, 27.000000)">
                    <path d="M24.2718367,49.4798376 C10.2111888,49.4798376 1.41889286,39.5674569 1.41889286,25.5781827 C1.41889286,18.7571269 2.71965306,12.537198 7.13661735,7.97334518 C11.778398,3.17701523 18.294949,0.188725888 25.4997398,0.188725888 C39.5603878,0.188725888 50.9994796,11.5697513 50.9994796,25.5590254 C50.9994796,32.5255736 48.4833061,39.1863807 43.5776786,43.4349137 C38.4389082,47.8858934 31.3303929,49.4798376 24.2718367,49.4798376 Z" id="Path" fill="#FFD064"></path>
                    <path d="M45.0618827,41.8187056 C40.3800306,47.3836599 33.3474949,50.9301015 25.5,50.9301015 C11.4398724,50.9301015 0.000520408163,39.5488173 0.000520408163,25.5600609 C0.000520408163,17.752401 3.56505612,10.7555635 9.15840306,6.09747716 C5.45257653,10.5041878 3.22080612,16.1750254 3.22080612,22.3561218 C3.22080612,36.3448782 14.6601582,47.7261624 28.7202857,47.7261624 C34.9329184,47.7261624 40.6326888,45.5057208 45.0618827,41.8187056 Z" id="Path" fill="#FFC250"></path>
                    <path d="M42.9490255,25.5592843 C42.9490255,30.2396345 41.0875255,34.4873909 38.0608316,37.6097817 C34.8871224,40.8836193 30.4332092,41.7612335 25.5005204,41.7612335 C15.863602,41.7612335 9.51462245,35.1664416 9.51462245,25.5784416 C9.51462245,20.5882081 10.1672143,16.0706954 13.5553316,12.9040355 C16.677,9.98616244 20.8787755,8.19883249 25.5,8.19883249 C35.1369184,8.19883249 42.9490255,15.9712843 42.9490255,25.5592843 L42.9490255,25.5592843 Z" id="Path" fill="#FFC250"></path>
                    <path d="M39.2356531,36.2685076 C36.0400867,40.3177005 31.0759133,42.9202538 25.5,42.9202538 C15.8638622,42.9202538 8.05097449,35.1470254 8.05097449,25.559802 C8.05097449,20.0121929 10.6668061,15.0706294 14.7366582,11.8938731 C12.4106939,14.8441066 11.0235459,18.5606345 11.0235459,22.6023198 C11.0235459,32.1895431 18.8364337,39.9627716 28.4725714,39.9627716 C32.5325357,39.9627716 36.2706276,38.582665 39.2356531,36.2685076 L39.2356531,36.2685076 Z" id="Path" fill="#EBB044"></path>
                    <path d="M27.5826735,23.7540914 C27.091148,23.5811574 26.6469796,23.4501624 26.2551122,23.3341827 C25.1560102,23.0092843 24.7568571,22.8738883 24.3751378,22.4221371 C24.2486786,22.2722437 24.1542245,21.9048883 24.2463367,21.4528782 C24.2962959,21.2079746 24.4781786,20.6045178 25.0878367,20.2943756 C25.9699286,19.8467665 26.9756173,20.6381726 27.0875051,20.7298173 C27.8787857,21.3788376 29.0499643,21.2677766 29.7028163,20.479736 C30.3556684,19.6922132 30.2432602,18.5272386 29.4514592,17.8777005 C28.8777092,17.4070508 28.1579847,16.9915431 27.3578571,16.732401 L27.3578571,16.2107513 C27.3578571,15.1897157 26.5262449,14.3623249 25.5,14.3623249 C24.4737551,14.3623249 23.6421429,15.1897157 23.6421429,16.2107513 L23.6421429,16.8916142 C23.560699,16.9278579 23.4789949,16.9609949 23.397551,17.0024162 C21.9544592,17.7360914 20.9362806,19.0903096 20.6047806,20.7184264 C20.298,22.2240914 20.6438112,23.7496904 21.5298061,24.7997208 C22.6484235,26.1244264 23.9434592,26.5073147 25.1960816,26.8780355 C25.5632296,26.9862487 25.9426071,27.0988629 26.3461837,27.2402132 C27.4346173,27.6223249 27.5452041,28.400269 27.4463265,28.9856041 C27.3071173,29.8122183 26.6063878,30.7053655 25.3977398,30.713132 C24.0397347,30.7211574 23.6900204,30.6670508 22.6845918,30.0136294 C21.8256582,29.4554772 20.6742551,29.6957208 20.1132551,30.5505533 C19.5522551,31.4051269 19.7937245,32.5506853 20.6529184,33.1088376 C21.7900102,33.8479492 22.6489439,34.1803553 23.6418827,34.3196345 L23.6418827,34.9456142 C23.6418827,35.9666497 24.4734949,36.7940406 25.4997398,36.7940406 C26.5259847,36.7940406 27.3575969,35.9666497 27.3575969,34.9456142 L27.3575969,34.0780964 C29.4577041,33.3343249 30.7974949,31.4535381 31.1105204,29.5973452 C31.5497449,26.9973807 30.1318929,24.6490508 27.5826735,23.7540914 L27.5826735,23.7540914 Z" id="Path" fill="#FFD064"></path>
                </g>
                <path d="M82,124.088122 C80.5343997,127.560708 77.0749615,130 73.0432659,130 L12.7102494,130 C7.34760235,130 3,125.684329 3,120.361068 L3,11.890951 C3,7.8888664 5.45734046,4.45483616 8.95561965,3 L8.95561965,120.361068 C8.95561965,122.417373 10.6387296,124.088122 12.7102494,124.088122 L82,124.088122 Z" id="Path" fill="#E9EDF1"></path>
                <path d="M72.2972136,132 L11.7027864,132 C5.24986997,132 0,126.795539 0,120.398438 L0,11.6015625 C0,5.20446094 5.24986997,0 11.7027864,0 L72.2972136,0 C78.75013,0 84,5.20446094 84,11.6015625 L84,120.398438 C84,126.795539 78.75013,132 72.2972136,132 Z M11.7027864,3.8671875 C7.40084211,3.8671875 3.90092879,7.33682812 3.90092879,11.6015625 L3.90092879,120.398438 C3.90092879,124.663172 7.40084211,128.132812 11.7027864,128.132812 L72.2972136,128.132812 C76.5991579,128.132812 80.0990712,124.663172 80.0990712,120.398438 L80.0990712,11.6015625 C80.0990712,7.33682812 76.5991579,3.8671875 72.2972136,3.8671875 L11.7027864,3.8671875 Z" id="Shape" fill="#5F6C75"></path>
                <path d="M45.1538462,12 L32.8461538,12 C31.8265846,12 31,11.1045333 31,10 C31,8.89546667 31.8265846,8 32.8461538,8 L45.1538462,8 C46.1734154,8 47,8.89546667 47,10 C47,11.1045333 46.1734154,12 45.1538462,12 Z" id="Path" fill="#5F6C75"></path>
                <path d="M52,11.9996471 C50.9276646,12.0209785 49.9787654,11.0722622 50.0003616,9.99982353 C49.9870306,9.0724387 50.6935726,8.20531522 51.6080779,8.03999647 C51.8666989,7.98666784 52.1333185,7.98666784 52.3919396,8.03999647 C53.3067115,8.20531522 54.0127202,9.0724387 53.9996559,9.99982353 C54.0207188,11.0725289 53.0718196,12.0199119 52,11.9996471 L52,11.9996471 Z" id="Path" fill="#5F6C75"></path>
                <path d="M57.0400076,91 L27.9599924,91 C26.8775539,91 26,90.1048 26,89 C26,87.8952 26.8775539,87 27.9599924,87 L57.0400076,87 C58.1224461,87 59,87.8952 59,89 C59,90.1048 58.1224461,91 57.0400076,91 Z" id="Path" fill="#E9EDF1"></path>
                <path d="M65.0779185,98 L18.9218253,98 C17.8604652,98 17,97.1048 17,96 C17,94.8952 17.8604652,94 18.9218253,94 L65.0781747,94 C66.1395348,94 67,94.8952 67,96 C67,97.1048 66.1395348,98 65.0779185,98 Z" id="Path" fill="#E9EDF1"></path>
                <path d="M54.3753596,116.927089 L29.5407545,117 C28.1374958,117 27,115.904629 27,114.553337 L27.4540328,110.430466 C27.4540328,109.079174 27.3483374,108.618957 28.7513421,108.618957 L30.5598512,107 L55.4592455,107 C56.8625042,107 58,108.095371 58,109.446663 L58,113.850656 L57.0998107,115.677823 C57.0998107,117.029115 55.7786183,116.927089 54.3753596,116.927089 Z" id="Path" fill="#BED9FD"></path>
                <path d="M58,114.466667 L58,116.333333 C58,117.805333 56.85312,119 55.44,119 L28.56,119 C27.14688,119 26,117.805333 26,116.333333 L26,109.666667 C26,108.194667 27.14688,107 28.56,107 L30.352,107 L30.352,112.866667 C30.352,113.749333 31.04064,114.466667 31.888,114.466667 L58,114.466667 Z" id="Path" fill="#9EC8FC"></path>
            </g>
        </g>
    </g>
</svg>