<?xml version="1.0" encoding="UTF-8"?>
<svg width="130px" height="155px" viewBox="0 0 130 155" version="1.1" xmlns="http://www.w3.org/2000/svg" xmlns:xlink="http://www.w3.org/1999/xlink">
    <title>banker</title>
    <g id="Design" stroke="none" stroke-width="1" fill="none" fill-rule="evenodd">
        <g id="Courses_1440-Copy" transform="translate(-169.000000, -1399.000000)" fill-rule="nonzero">
            <g id="banker" transform="translate(169.000000, 1399.000000)">
                <polygon id="Path" fill="#F2D1A5" points="86 124 83.1220577 101.2427 78.1307855 95 50.9617385 95.6986849 44 119.819572"></polygon>
                <path d="M105.064497,48 L107.302364,48 C112.658167,48 117,52.3279436 117,57.6666847 C117,65.0304441 111.011287,71 103.623789,71 L26.3762108,71 C18.9887131,71 13,65.0304441 13,57.6666847 C13,52.3279436 17.3418326,48 22.6976355,48 L24.7086818,48 L105.064497,48 Z" id="Path" fill="#F2BB88"></path>
                <path d="M84,102.009122 L82.4413945,90 L47.1519167,91.7690047 L44,120.497263 L49.1932481,121 L50.5616028,106.607278 C50.6426881,105.752625 51.5425146,105.217525 52.3287585,105.569441 C56.5830573,107.472299 60.811169,108.431897 64.965452,108.431897 C71.1967187,108.431583 77.5952043,106.272958 84,102.009122 L84,102.009122 Z" id="Path" fill="#F2BB88"></path>
                <path d="M68.3504385,4 C68.6901926,3.99286731 82.9276698,6.961385 82.9276698,6.961385 L101.229068,48.3836241 C101.229068,48.3836241 104.016802,51.0386688 104,52.6896058 C103.866147,65.8908882 102.922212,72.4151029 96.7722575,80.8972033 C87.228825,94.0599618 75.3405582,103 63.9942725,103 C52.6479868,103 40.7597199,94.0599618 31.2162874,80.8972033 C25.2198,72.6266738 24.1727198,66.2174096 24,53.6657526 C23.9736183,51.7342743 26.8016724,49.9006593 26.8016724,47.6491839 C26.8016724,38.4689925 27.7474828,30.1490654 30.5767871,23.248621 C32.7172065,18.0286279 35.7424868,14.6717641 39.9336205,10.8743604 C39.9339331,10.8746711 59.0989383,4.19232187 68.3504385,4 L68.3504385,4 Z" id="Path" fill="#F2D1A5"></path>
                <path d="M104,48.7515654 C104,50.6245453 103.996876,52.3796887 103.981259,54.0262985 C98.4525787,54.0169956 93.4705196,50.0787763 88.7414678,41.9883714 C85.9521394,37.2159938 83.7719029,31.8544338 82.4912482,28.3844594 C76.9531976,29.8109011 67.8917847,29.975252 63.9998438,29.975252 C60.1172736,29.975252 51.0902198,29.8109011 45.5584162,28.3999642 C44.2902557,31.9567655 42.1412547,37.4485658 39.4019031,42.3542847 C34.7571871,50.6679587 29.8407225,54.8015386 24.3745135,54.9937981 L24.087147,55 L24.0340467,55 C24.0099954,53.3537003 24.0018742,51.6035184 24,49.7283678 C24,49.4064882 25.4377692,47.0258811 25.4377692,46.6965591 C25.4377692,37.536323 28.9470754,31.2109846 31.7738864,24.3237522 C33.9135168,19.1110382 41.0248986,11.5505874 41.0248986,11.5505874 C47.8592217,5.36727294 54.4086772,3.20125231 63.6543794,3.00930288 C63.9948462,3.00310096 64.3353129,3 64.6789032,3 C80.9644579,3 90.2145331,12.4824259 96.4247713,25.2540402 C99.8269398,32.2507365 104,38.5106446 104,48.7515654 L104,48.7515654 Z" id="Path" fill="#F2BB88"></path>
                <path d="M105,47.9968925 L105,48 C97.085752,48 90.3127435,30.722199 88.0953896,24.3766469 C87.6116032,22.9969088 86.3525183,22.0460083 84.8980582,21.9527827 C84.8763498,21.9527827 84.8515403,21.9496752 84.8267307,21.9496752 C84.3305396,21.9154925 83.8405509,21.9900729 83.3722706,22.1578789 C76.8597624,24.479195 53.7124477,24.479195 47.1999396,22.1578789 C46.7316592,21.9900729 46.2416705,21.9154925 45.7454794,21.9496752 L45.7020627,21.9496752 C44.2351978,22.0460083 42.9637081,23.0155539 42.4954277,24.4170446 C40.9007936,29.1519701 36.9067654,39.8971464 31.8136739,45.4726555 C31.8136739,45.4726555 29.3116303,47.1566196 27.1860717,47.2315108 L27,47.2346183 L27,46.2557501 C27,37.0761414 29.3227946,30.7371151 32.1293755,23.8350065 C34.2536936,18.6112684 37.2544093,14.8850434 41.4131109,11.0876562 C41.4131109,11.0876562 55.0571256,0.364232524 64.2366609,0.171566398 C64.5746911,0.165351362 64.9127213,0.162243844 65.2538526,0.162243844 C66.228558,0.162243844 67.2196997,-0.0475136326 68.1627729,0.00997545347 C91.4344455,1.42482847 105,20.1299126 105,47.9968925 L105,47.9968925 Z" id="Path" fill="#AB7B64"></path>
                <path d="M68,0.10864745 C59.5273844,0.741906874 51.5083815,4.30864745 45.2013006,10.0514412 L45.1236272,10.1259424 C40.9572254,13.9192905 37.6296965,18.5600887 35.5014451,23.7782705 C32.9506503,30.0332594 31.499711,37.3498891 31.254263,45.5015521 C29.3590318,47.5689579 27.3146676,48.9223947 25.1864162,48.9968958 L25,49 L25,48.0221729 C25,38.8523282 26.4757948,30.6727273 29.2875723,23.7782705 C31.4158237,18.5600887 34.7433526,13.9192905 38.9097543,10.1259424 L38.9874277,10.0514412 C45.7854046,3.8616408 54.5718208,0.201773836 63.7683526,0.00931263858 C64.1070087,0.00310421286 64.4456647,0 64.7874277,0 C65.8779624,0 66.9498555,0.0372505543 68,0.10864745 L68,0.10864745 Z" id="Path" fill="#9A6A53"></path>
                <path d="M107.725171,118.018442 L118.650495,120.007992 C127.050027,122.577059 127.098792,129.699115 128.602712,138.419689 L129.883313,145.845883 C130.707643,150.625178 127.059656,154.999062 122.249097,154.999062 L88.9718179,154.999062 L84.1336154,152.085224 L77.9682229,155 L64.9128101,152.244638 L52.9960537,155 L48.0478992,152.084911 L41.9940117,154.99875 L8.54124424,154.99875 C7.22958416,154.99875 6.00427064,154.67367 4.93270368,154.10353 C2.07394939,152.583158 3.06569237,147.234661 3.66514867,143.758497 L4.93394607,138.411562 C6.440973,129.672234 5.47842633,124.902003 13.9018744,122.34669 L25.1030105,120.317443 L28.3279611,118 L107.725171,118.018442 Z" id="Path" fill="#6D7C84"></path>
                <path d="M33,118.003117 L31.4732945,122.756364 L12.8456063,125.483636 C9.34390189,126.621299 8.67616417,128.669091 7.45981563,136.324156 C7.3062046,137.29974 7.14632374,138.30961 6.96136352,139.356883 L4.18069045,154 C1.29343013,152.485195 -0.487203813,149.234286 0.117835536,145.768312 L1.40315229,138.4 C2.92358796,129.685195 2.9956911,122.572468 11.4975912,120.022857 L22.8052437,118 L33,118.003117 Z" id="Path" fill="#5F6C75"></path>
                <path d="M80,63 C78.8952,63 78,61.9193974 78,60.5857851 L78,55.4142149 C78,54.0806026 78.8952,53 80,53 C81.1048,53 82,54.0806026 82,55.4142149 L82,60.5857851 C82,61.9190755 81.1045333,63 80,63 Z" id="Path" fill="#AB7B64"></path>
                <path d="M50,63 C48.8954667,63 48,61.9193974 48,60.5857851 L48,55.4142149 C48,54.0806026 48.8954667,53 50,53 C51.1045333,53 52,54.0806026 52,55.4142149 L52,60.5857851 C52,61.9190755 51.1045333,63 50,63 Z" id="Path" fill="#AB7B64"></path>
                <path d="M86.6156739,47.9997736 C86.2219404,47.9997736 85.8228091,47.9235329 85.4547954,47.7631302 C82.2430103,46.3615871 77.7566721,46.3615871 74.5448871,47.7631302 C73.3976623,48.2638935 71.9462466,47.9448209 71.3035721,47.0497343 C70.6615326,46.1551429 71.0711424,45.0236604 72.2186847,44.5228972 C76.8729947,42.4923676 83.1270053,42.4923676 87.7813153,44.5228972 C88.9288576,45.0236604 89.3384674,46.1551429 88.6964279,47.0497343 C88.2591933,47.6574327 87.4498171,47.9997736 86.6156739,47.9997736 Z" id="Path" fill="#AB7B64"></path>
                <path d="M43.3841254,47.9998255 C42.5499906,47.9998255 41.7403051,47.6574938 41.30371,47.0498116 C40.6613595,46.1552441 41.0712826,45.0237919 42.2188134,44.5230421 C46.8730761,42.4923193 53.1270234,42.4923193 57.7812862,44.5230421 C58.928817,45.0237919 59.3387401,46.1552441 58.6960721,47.0498116 C58.0540391,47.9446267 56.6029557,48.2639383 55.4547899,47.7631884 C52.2430374,46.3614352 47.7561096,46.3616828 44.5446746,47.7631884 C44.1769822,47.9235868 43.7775373,47.9998255 43.3841254,47.9998255 Z" id="Path" fill="#AB7B64"></path>
                <path d="M66,76 C64.0336286,76 62.0675648,75.6050846 60.2751056,74.8152539 C59.125326,74.3084279 58.6690297,73.0932829 59.2562307,72.1008832 C59.8434318,71.1079454 61.2512805,70.7143751 62.4010601,71.2212011 C64.6544908,72.2144079 67.3455173,72.2141389 69.598948,71.2212011 C70.7484159,70.7143751 72.1565763,71.1082144 72.7437774,72.1008832 C73.3309784,73.0930139 72.8746821,74.3084279 71.7245908,74.8152539 C69.932755,75.6048156 67.9660678,76 66,76 Z" id="Path" fill="#F2BB88"></path>
                <path d="M64.5023806,91 C64.4223581,91 64.3426556,90.9992922 64.2619929,90.9978767 C60.2218145,90.922146 57.3080335,88.9319156 55.9306854,87.7527819 C54.88239,86.8549841 54.6909761,85.1878476 55.5030449,84.029239 C56.3147936,82.8702765 57.8227385,82.6583014 58.8710339,83.5560992 C59.7768891,84.3318078 61.6923089,85.6408161 64.3436159,85.6903595 C67.2503549,85.7448573 69.3584689,84.2157346 70.1295662,83.5560992 C71.1769013,82.6583014 72.6854864,82.8699227 73.4972351,84.0295929 C74.3089838,85.1882014 74.1175699,86.855338 73.0689544,87.7527819 C71.640712,88.9757969 68.6481888,91 64.5023806,91 L64.5023806,91 Z" id="Path" fill="#F2BB88"></path>
                <polygon id="Path" fill="#F7F9FA" points="73.5181914 114 62.3179418 114 59 114.853127 60.875108 125.961724 69.7351445 126 74 121.737354"></polygon>
                <path d="M70,122.586236 L69.2585142,126.698699 L63.9186665,128 L58.5788188,126.698699 L56,119.975115 L56.2853858,114 L60.3750539,114 L61.7968099,121.865086 C61.8723955,122.283089 62.2287685,122.586236 62.6446328,122.586236 L70,122.586236 Z" id="Path" fill="#E9EDF1"></path>
                <polygon id="Path" fill="#F7F9FA" points="74.4856078 153 54 152.948199 59.466404 129.089951 63.595204 128 70.3605493 128 76 149.664026"></polygon>
                <path d="M78,154 L53,154 L59.6355721,128 L64.4427861,128 L59.4418532,147.597236 C59.199005,148.549361 59.9409204,149.470383 60.9508706,149.470383 L76.8121891,149.470383 L78,154 Z" id="Path" fill="#E9EDF1"></path>
                <path d="M98,119.273239 L81.8926829,124.266791 L72,128 L72.9060115,123.575159 L74.5606552,116.15945 C75.767539,115.592665 76.0702629,113.765216 77.6169011,112.666307 C78.1544597,112.284385 78.7037446,111.865233 79.2585841,111.40468 C81.4464661,109.591352 83.0295175,107.713836 84.1250015,106.195775 C84.1311732,106.186147 84.1845588,106.115539 84.2771349,106 L98,119.273239 Z" id="Path" fill="#6D7C84"></path>
                <path d="M57,127 L48.0732391,124.716438 L24,118.952884 L41.0497611,113.15197 L45.6314149,107 C45.8526906,107.271706 45.9789113,107.447697 46.0038438,107.48166 C47.0011427,108.855626 48.4503428,110.54761 50.4698733,112.177844 C51.0567214,112.652093 51.638583,113.078486 52.2064201,113.461344 C53.7865157,114.526244 54.2209641,116.67488 55.3990235,117.172286 L55.8749221,120.966901 L57,127 Z" id="Path" fill="#6D7C84"></path>
                <g id="Group" transform="translate(23.000000, 106.000000)" fill="#5F6C75">
                    <g transform="translate(1.563668, 6.503413)" id="Path">
                        <path d="M79.0643564,6.14417696 L77.7386789,2.7995645 L57.5142006,8.60928022 L52.4219603,10.0722385 C51.9750641,10.2007583 51.5481828,9.817986 51.6326209,9.36491489 L53.3767358,0.00619372678 C51.8099408,1.06532101 50.3400931,1.8271494 49.117305,2.37529422 L47.5035999,11.0248337 L47.4132199,11.5110412 L47.4129072,11.5110412 L46.6216913,15.7630346 L50.655954,14.6048077 L50.655954,14.6044981 L57.5142006,12.6352026 L79.0643564,6.14417696 Z"></path>
                        <path d="M32.5048991,2.37529422 C31.3227663,1.87669921 29.8435366,1.14583945 28.2579776,0.0774215847 L29.9873941,9.34509496 C30.0721449,9.79909514 29.6433872,10.1818675 29.1961782,10.0521089 L24.2859488,8.62507422 L5.35274734,3.12752234 L0.242055763,5.80197356 L24.2859488,12.6509966 L35.0002001,15.7633443 L33.871232,9.71207327 L32.5048991,2.37529422 Z"></path>
                    </g>
                    <path d="M18.8127991,48.9279641 C18.8127991,48.9279641 16.0141466,31.6415823 0.0763069848,12.2703921 L6.9698925,8.59813151 L16.6355481,3.53475987 L23.2248439,0.0990996284 L24.3710124,8.26212184 L26.6899316,25.34473 L29.8916976,48.9304415 L18.8127991,48.9279641 Z" id="Path"></path>
                    <path d="M55.0348491,48.9304415 L58.2656993,25.1307367 L60.5474033,8.3240591 L61.6904444,0.0771118984 L84.9956608,12.2886636 C81.0924335,17.032439 75.1930279,27.1768344 72.7130509,31.4526736 L70.4576166,35.5569467 C66.9762667,43.6022881 66.1137476,48.9276544 66.1137476,48.9276544 L55.0348491,48.9304415 Z" id="Path"></path>
                </g>
                <path d="M93.5831603,137.329335 L95.5937645,137 L114.416522,137 C115.291084,137 116,137.67774 116,138.513489 L116,142.147073 L114.48697,143.486511 C114.48697,144.32226 113.778054,145 112.903492,145 L93.8236966,144.916153 C92.9491346,144.916153 92.240219,144.238412 92.240219,143.402664 L92,138.842824 C92,138.007076 92.7089157,137.329335 93.5831603,137.329335 Z" id="Path" fill="#FFD064"></path>
                <path d="M116,142.666667 L116,145.333333 C116,146.253333 115.304618,147 114.450912,147 L93.5490881,147 C92.6922778,147 92,146.253333 92,145.333333 L92,138.666667 C92,137.743333 92.6922778,137 93.5490881,137 L96.0357004,137 L96.0357004,141.666667 C96.0357004,142.216667 96.451688,142.666667 96.9670159,142.666667 L116,142.666667 Z" id="Path" fill="#FFC250"></path>
            </g>
        </g>
    </g>
</svg>