<?xml version="1.0" encoding="UTF-8"?>
<svg width="347px" height="259px" viewBox="0 0 347 259" version="1.1" xmlns="http://www.w3.org/2000/svg" xmlns:xlink="http://www.w3.org/1999/xlink">
    <title>no-fee</title>
    <g id="Design" stroke="none" stroke-width="1" fill="none" fill-rule="evenodd">
        <g id="Courses_1440-Copy" transform="translate(-109.000000, -1692.000000)" fill-rule="nonzero">
            <g id="no-fee" transform="translate(109.000000, 1692.000000)">
                <path d="M317.205863,256 L24.9159945,254.118512 C13.3640908,254.118512 4,244.766084 4,233.228568 L4.71184101,24.8771383 C4.71184101,16.8616667 5.01163694,5.91324689 11.644796,2.41069957 C14.5590912,0.871807007 17.8812484,0 21.4076851,0 L326.084005,0 C337.635909,0 347,9.35242805 347,20.8899443 L347,237.793717 C347,241.316458 346.127106,244.635174 344.585597,247.546536 C341.077985,254.170737 325.230633,256 317.205863,256 Z" id="Path" fill="#DF646E"></path>
                <path d="M345,247.826998 C341.490791,254.467951 334.500334,259 326.454319,259 L20.9713695,259 C9.38818309,259 0,249.621661 0,238.050621 L0,20.5262343 C0,12.4886558 4.52981582,5.50552944 11.1847304,2 L11.1847304,238.050621 C11.1847304,243.441594 15.5747371,247.826998 20.9713695,247.826998 L345,247.826998 Z" id="Path" fill="#DC4955"></path>
                <path d="M29.3561177,232.156116 L317.179434,235 C319.110266,235 320.676051,233.441259 320.676051,231.519114 L326,223.766485 L326,24.480886 C326,22.5587408 324.434215,21 322.503383,21 L34.551391,21 L27.4966168,29.5977885 C25.565785,29.5977885 24,31.1565293 24,33.0786745 L25.8602002,228.674534 C25.8595008,230.597375 27.4252859,232.156116 29.3561177,232.156116 Z" id="Path" fill="#F7F9FA"></path>
                <path d="M326,224.056673 L326,234.514168 C326,236.439045 324.436453,238 322.50838,238 L24.4916201,238 C22.5635475,238 21,236.439045 21,234.514168 L21,24.4858318 C21,22.5609555 22.5635475,21 24.4916201,21 L34.9664804,21 L34.9664804,221.268007 C34.9664804,222.808048 36.2171788,224.056673 37.7597765,224.056673 L326,224.056673 Z" id="Path" fill="#E9EDF1"></path>
                <g id="Group" transform="translate(92.000000, 40.000000)" fill="#DF646E">
                    <g transform="translate(0.000000, 96.218130)" id="Path">
                        <path d="M34.0002039,11.0218565 C36.8982149,11.0218565 39.2476888,8.68054869 39.2476888,5.79261032 C39.2476888,2.90467196 36.8982149,0.563364124 34.0002039,0.563364124 L5.5525387,0.563364124 C2.6545277,0.563364124 0.305053789,2.90467196 0.305053789,5.79261032 L0.305053789,75.7383103 C0.305053789,78.6262486 2.6545277,80.9675565 5.5525387,80.9675565 C8.4505497,80.9675565 10.8000236,78.6262486 10.8000236,75.7383103 L10.8000236,45.3326839 L31.7402871,45.3326839 C34.6382981,45.3326839 36.987772,42.9913761 36.987772,40.1034377 C36.987772,37.2154994 34.6382981,34.8741915 31.7402871,34.8741915 L10.8000236,34.8741915 L10.8000236,11.0225538 L34.0002039,11.0225538 L34.0002039,11.0218565 Z"></path>
                        <path d="M94.6051563,70.4456159 L70.3316904,70.4456159 L70.3316904,45.9950551 L92.4284995,45.9950551 C95.3265105,45.9950551 97.6759844,43.6537473 97.6759844,40.7658089 C97.6759844,37.8778705 95.3265105,35.5365627 92.4284995,35.5365627 L70.3316904,35.5365627 L70.3316904,11.0860019 L94.6051563,11.0860019 C97.5031673,11.0860019 99.8526412,8.74469411 99.8526412,5.85675574 C99.8526412,2.96881738 97.5031673,0.627509544 94.6051563,0.627509544 L65.0842055,0.627509544 C62.1861945,0.627509544 59.8367206,2.96881738 59.8367206,5.85675574 L59.8367206,75.6748621 C59.8367206,78.5628004 62.1861945,80.9041083 65.0842055,80.9041083 L94.6051563,80.9041083 C97.5031673,80.9041083 99.8526412,78.5628004 99.8526412,75.6748621 C99.8526412,72.7869237 97.5031673,70.4456159 94.6051563,70.4456159 L94.6051563,70.4456159 Z"></path>
                        <path d="M157.469326,70.4456159 L133.19586,70.4456159 L133.19586,45.9950551 L155.292669,45.9950551 C158.19068,45.9950551 160.540154,43.6537473 160.540154,40.7658089 C160.540154,37.8778705 158.19068,35.5365627 155.292669,35.5365627 L133.19586,35.5365627 L133.19586,11.0860019 L157.469326,11.0860019 C160.367337,11.0860019 162.716811,8.74469411 162.716811,5.85675574 C162.716811,2.96881738 160.367337,0.627509544 157.469326,0.627509544 L127.948375,0.627509544 C125.050364,0.627509544 122.70089,2.96881738 122.70089,5.85675574 L122.70089,75.6748621 C122.70089,78.5628004 125.050364,80.9041083 127.948375,80.9041083 L157.469326,80.9041083 C160.367337,80.9041083 162.716811,78.5628004 162.716811,75.6748621 C162.716811,72.7869237 160.367337,70.4456159 157.469326,70.4456159 L157.469326,70.4456159 Z"></path>
                    </g>
                    <g>
                        <path d="M5.27477183,81.0107849 C2.37676083,81.0107849 0.0272869215,78.6694771 0.0272869215,75.7815387 L0.0272869215,5.96691853 C0.0272869215,3.67860039 1.52037129,1.65592796 3.71312032,0.974731492 C5.90586935,0.294232253 8.2882275,1.11208636 9.59240241,2.99531222 L49.0807759,59.9787567 L48.5560274,5.88673676 C48.5280408,2.99879839 50.8544258,0.635179105 53.7524368,0.607289792 L53.8042119,0.607289792 C56.6784343,0.607289792 59.0223109,2.91513045 59.0502975,5.785638 L59.706583,73.3739937 C59.706583,76.5680173 57.9896059,79.1338341 55.3322795,79.9607523 C52.7582133,80.76257 50.0092309,79.7153263 48.3265374,77.2945339 L10.5222567,22.7416431 L10.5222567,75.7815387 C10.5222567,78.6694771 8.17278283,81.0107849 5.27477183,81.0107849 L5.27477183,81.0107849 Z" id="Path"></path>
                        <path d="M122.652613,81.0107849 C100.408175,81.0107849 82.310649,62.9761606 82.310649,40.8083401 C82.310649,18.6405196 100.408175,0.606592559 122.652613,0.606592559 C144.897052,0.606592559 162.994578,18.6412169 162.994578,40.8083401 C162.994578,62.9754634 144.897751,81.0107849 122.652613,81.0107849 Z M122.652613,11.065085 C106.195101,11.065085 92.8056188,24.4080296 92.8056188,40.8083401 C92.8056188,57.2086507 106.195101,70.5522925 122.652613,70.5522925 C139.110125,70.5522925 152.499608,57.2093479 152.499608,40.8083401 C152.499608,24.4073323 139.110825,11.065085 122.652613,11.065085 Z" id="Shape"></path>
                    </g>
                </g>
            </g>
        </g>
    </g>
</svg>