<?xml version="1.0" encoding="UTF-8"?>
<svg width="96px" height="134px" viewBox="0 0 96 134" version="1.1" xmlns="http://www.w3.org/2000/svg" xmlns:xlink="http://www.w3.org/1999/xlink">
    <title>form</title>
    <g id="Design" stroke="none" stroke-width="1" fill="none" fill-rule="evenodd">
        <g id="Courses_1440-Copy" transform="translate(-184.000000, -1138.000000)" fill-rule="nonzero">
            <g id="Group-2" transform="translate(135.000000, 1113.000000)">
                <g id="form" transform="translate(49.000000, 25.000000)">
                    <path d="M92.3444539,133 L4.93367376,132.004957 C3.44520567,132.004957 2.2386383,130.801606 2.2386383,129.317106 L1,4.37205928 C1,2.88755889 2.20656738,1.68420776 3.69503546,1.68420776 L4.36879433,0 L93.3049645,0 C94.7934326,0 96,1.20335112 96,2.68785152 L96,129.554443 L95.0394894,130.312148 C95.0394894,131.796649 93.832922,133 92.3444539,133 Z" id="Path" fill="#F7F9FA"></path>
                    <path d="M5.4084507,129.955734 C4.66181408,129.955734 4.05633803,129.35206 4.05633803,128.607646 L4.05633803,0 L2.70422535,0 C1.21068169,0 0,1.20707847 0,2.69617706 L0,131.303823 C0,132.792922 1.21068169,134 2.70422535,134 L93.2957746,134 C94.7893183,134 96,132.792922 96,131.303823 L96,129.955734 L5.4084507,129.955734 Z" id="Path" fill="#E9EDF1"></path>
                    <path d="M15.1,16 L7.9,16 C7.4029,16 7,15.5971 7,15.1 L7,7.9 C7,7.4029 7.4029,7 7.9,7 L15.1,7 C15.5971,7 16,7.4029 16,7.9 L16,15.1 C16,15.5971 15.5971,16 15.1,16 Z" id="Path" fill="#B3E59F"></path>
                    <path d="M87.959201,10 L28.040799,10 C26.9134616,10 26,8.88066667 26,7.5 C26,6.11933333 26.9134616,5 28.040799,5 L87.959201,5 C89.0865384,5 90,6.11933333 90,7.5 C90,8.88066667 89.0865384,10 87.959201,10 Z" id="Path" fill="#BED9FD"></path>
                    <path d="M78.9264706,20 L36.0735294,20 C34.9281118,20 34,18.8806667 34,17.5 C34,16.1193333 34.9281118,15 36.0735294,15 L78.9264706,15 C80.0718882,15 81,16.1193333 81,17.5 C81,18.8806667 80.0718882,20 78.9264706,20 Z" id="Path" fill="#BED9FD"></path>
                    <path d="M28.9932439,31 L17.0067561,31 C15.898224,31 15,29.8806667 15,28.5 C15,27.1193333 15.898224,26 17.0067561,26 L28.9932439,26 C30.101776,26 31,27.1193333 31,28.5 C31,29.8806667 30.1015084,31 28.9932439,31 Z" id="Path" fill="#E9EDF1"></path>
                    <path d="M72.9545455,43 L17.0454545,43 C15.9155455,43 15,41.8806667 15,40.5 C15,39.1193333 15.9155455,38 17.0454545,38 L72.9545455,38 C74.0844545,38 75,39.1193333 75,40.5 C75,41.8806667 74.0844545,43 72.9545455,43 Z" id="Path" fill="#E9EDF1"></path>
                    <path d="M88.0127266,50 L25.9872734,50 C24.8895036,50 24,48.8806667 24,47.5 C24,46.1193333 24.8895036,45 25.9872734,45 L88.0127266,45 C89.1104964,45 90,46.1193333 90,47.5 C90,48.8806667 89.1104964,50 88.0127266,50 Z" id="Path" fill="#E9EDF1"></path>
                    <path d="M77.9683007,59 L25.0316993,59 C23.9093886,59 23,57.8806667 23,56.5 C23,55.1193333 23.9093886,54 25.0316993,54 L77.9683007,54 C79.0906114,54 80,55.1193333 80,56.5 C80,57.8806667 79.0906114,59 77.9683007,59 Z" id="Path" fill="#E9EDF1"></path>
                    <path d="M87.9910714,100 L17.0089286,100 C15.8991964,100 15,98.8806667 15,97.5 C15,96.1193333 15.8991964,95 17.0089286,95 L87.9910714,95 C89.1008036,95 90,96.1193333 90,97.5 C90,98.8806667 89.1008036,100 87.9910714,100 Z" id="Path" fill="#E9EDF1"></path>
                    <path d="M23.9253112,114 L7.0746888,114 C5.92863071,114 5,112.880667 5,111.5 C5,110.119333 5.92863071,109 7.0746888,109 L23.9253112,109 C25.0713693,109 26,110.119333 26,111.5 C26,112.880667 25.0713693,114 23.9253112,114 Z" id="Path" fill="#BED9FD"></path>
                    <path d="M31.9717396,122 L8.02826043,122 C6.90784937,122 6,120.880667 6,119.5 C6,118.119333 6.90784937,117 8.02826043,117 L31.9717396,117 C33.0921506,117 34,118.119333 34,119.5 C34,120.880667 33.0921506,122 31.9717396,122 Z" id="Path" fill="#BED9FD"></path>
                    <path d="M71.1692308,33 L36.8307692,33 C36.3719077,33 36,32.5971 36,32.1 L36,24.9 C36,24.4029 36.3719077,24 36.8307692,24 L71.1692308,24 C71.6280923,24 72,24.4029 72,24.9 L72,32.1 C72,32.5971 71.6280923,33 71.1692308,33 Z" id="Path" fill="#E9EDF1"></path>
                    <path d="M88.1,33 L80.9,33 C80.4029,33 80,32.5971 80,32.1 L80,24.9 C80,24.4029 80.4029,24 80.9,24 L88.1,24 C88.5971,24 89,24.4029 89,24.9 L89,32.1 C89,32.5971 88.5971,33 88.1,33 Z" id="Path" fill="#B3E59F"></path>
                    <path d="M15.1,58 L7.9,58 C7.4029,58 7,57.5971 7,57.1 L7,49.9 C7,49.4029 7.4029,49 7.9,49 L15.1,49 C15.5971,49 16,49.4029 16,49.9 L16,57.1 C16,57.5971 15.5971,58 15.1,58 Z" id="Path" fill="#B3E59F"></path>
                    <path d="M88.0127266,68 L25.9872734,68 C24.8895036,68 24,66.8806667 24,65.5 C24,64.1193333 24.8895036,63 25.9872734,63 L88.0127266,63 C89.1104964,63 90,64.1193333 90,65.5 C90,66.8806667 89.1104964,68 88.0127266,68 Z" id="Path" fill="#E9EDF1"></path>
                    <path d="M40.0781277,75 L25.9218723,75 C24.8602301,75 24,73.8806667 24,72.5 C24,71.1193333 24.8602301,70 25.9218723,70 L40.0781277,70 C41.1397699,70 42,71.1193333 42,72.5 C42,73.8806667 41.1397699,75 40.0781277,75 Z" id="Path" fill="#E9EDF1"></path>
                    <path d="M15.1,74 L7.9,74 C7.4029,74 7,73.5971 7,73.1 L7,65.9 C7,65.4029 7.4029,65 7.9,65 L15.1,65 C15.5971,65 16,65.4029 16,65.9 L16,73.1 C16,73.5971 15.5971,74 15.1,74 Z" id="Path" fill="#B3E59F"></path>
                    <path d="M88.0127266,84 L25.9872734,84 C24.8895036,84 24,82.8806667 24,81.5 C24,80.1193333 24.8895036,79 25.9872734,79 L88.0127266,79 C89.1104964,79 90,80.1193333 90,81.5 C90,82.8806667 89.1104964,84 88.0127266,84 Z" id="Path" fill="#E9EDF1"></path>
                    <path d="M88.0127266,92 L25.9872734,92 C24.8895036,92 24,90.8806667 24,89.5 C24,88.1193333 24.8895036,87 25.9872734,87 L88.0127266,87 C89.1104964,87 90,88.1193333 90,89.5 C90,90.8806667 89.1104964,92 88.0127266,92 Z" id="Path" fill="#E9EDF1"></path>
                    <path d="M15.1,89 L7.9,89 C7.4029,89 7,88.5971 7,88.1 L7,80.9 C7,80.4029 7.4029,80 7.9,80 L15.1,80 C15.5971,80 16,80.4029 16,80.9 L16,88.1 C16,88.5971 15.5971,89 15.1,89 Z" id="Path" fill="#B3E59F"></path>
                    <path d="M83.5538462,126 L54.4461538,126 C50.34048,126 47,122.7104 47,118.666667 L47,113.333333 C47,109.2896 50.34048,106 54.4461538,106 L83.5538462,106 C87.65952,106 91,109.2896 91,113.333333 L91,118.666667 C91,122.7104 87.65952,126 83.5538462,126 Z M54.4461538,110 C52.5797415,110 51.0615385,111.4952 51.0615385,113.333333 L51.0615385,118.666667 C51.0615385,120.5048 52.5797415,122 54.4461538,122 L83.5538462,122 C85.4202585,122 86.9384615,120.5048 86.9384615,118.666667 L86.9384615,113.333333 C86.9384615,111.4952 85.4202585,110 83.5538462,110 L54.4461538,110 Z" id="Shape" fill="#FFD064"></path>
                    <path d="M78.0172414,117 L58.9827586,117 C57.8874828,117 57,115.880667 57,114.5 C57,113.119333 57.8874828,112 58.9827586,112 L78.0172414,112 C79.1125172,112 80,113.119333 80,114.5 C80,115.880667 79.1122529,117 78.0172414,117 Z" id="Path" fill="#FFD064"></path>
                    <g id="Group" transform="translate(5.000000, 26.000000)" fill="#E9EDF1">
                        <ellipse id="Oval" cx="2.57545272" cy="2.27232749" rx="2.41448692" ry="2.02886383"></ellipse>
                        <ellipse id="Oval" cx="2.57545272" cy="14.0667892" rx="2.41448692" ry="2.02886383"></ellipse>
                        <ellipse id="Oval" cx="2.57545272" cy="70.8749765" rx="2.41448692" ry="2.02886383"></ellipse>
                    </g>
                </g>
            </g>
        </g>
    </g>
</svg>