<?xml version="1.0" encoding="UTF-8"?>
<svg width="121px" height="118px" viewBox="0 0 121 118" version="1.1" xmlns="http://www.w3.org/2000/svg" xmlns:xlink="http://www.w3.org/1999/xlink">
    <title>suitcase</title>
    <g id="Design" stroke="none" stroke-width="1" fill="none" fill-rule="evenodd">
        <g id="Courses_1440" transform="translate(-918.000000, -813.000000)" fill-rule="nonzero">
            <g id="suitcase" transform="translate(918.000000, 813.000000)">
                <path d="M85.9820605,15.7622091 L81.7599027,15.6431971 L81.511612,5.89120657 L45.5595567,5.71070904 C42.5970911,5.99531289 41.7950709,8.02969476 41.7950709,9.31600169 L41.7950709,14.2069026 L39.911612,16 L38.1473133,15.8215986 L36,11.3024061 C36,8.05345056 36.2451293,3.20144398 38.885133,1.53364678 C40.4193799,0.564549702 42.255661,0 44.2269092,0 L78.2726465,0 C83.6448207,0 88,4.17100686 88,9.31600169 L88,14.2069026 L85.9820605,15.7622091 Z" id="Path" fill="#B78C7A"></path>
                <g id="Group" transform="translate(35.000000, 1.000000)" fill="#AB7B64">
                    <path d="M5.00180028,13.7129367 C4.32814317,13.7129367 3.78184899,13.163752 3.78184899,12.4865306 L3.78184899,4.88281307 C3.78184899,3.12095813 4.24860235,1.4672722 5.06084592,0.0365469005 C2.11417558,1.72727029 0.121995129,4.91420906 0.121995129,8.56203124 L0.121995129,17.3921548 L3.78184899,19.8449669 L7.44170285,17.3921548 L7.44170285,13.7129367 L5.00180028,13.7129367 Z" id="Path"></path>
                    <path d="M50.1399979,12.4865306 L50.1399979,8.15192105 C50.1399979,4.99171793 47.5917636,2.43000096 44.4481932,2.43000096 L13.5414593,2.43000096 C10.1726858,2.43000096 7.44170285,5.17543355 7.44170285,8.56203124 L7.44170285,8.5585973 C7.44170285,7.20439973 8.53453521,6.10725687 9.88160542,6.10921912 L44.0402414,6.10921912 C45.3877996,6.10921912 46.480144,7.20734311 46.480144,8.56203124 L46.480144,17.3921548 L50.1399979,19.8449669 L53.7998517,17.3921548 L53.7998517,13.7129367 L51.3599492,13.7129367 C50.6862921,13.7129367 50.1399979,13.1639973 50.1399979,12.4865306 Z" id="Path"></path>
                </g>
                <path d="M90.5744039,18 L80.8710493,18 L79,19.7288934 L79.2476781,24 L91.1393817,23.6390481 L93,21.5343595 L93,20.3563182 C93.0002425,19.0548182 91.9141946,18 90.5744039,18 L90.5744039,18 Z" id="Path" fill="#FFD064"></path>
                <path d="M44.5342128,19 L34.671064,19 L33,20.934887 L33,24 L45.1506596,23.88744 L47,22.30389 L47,21.2025199 C47,19.9861668 45.8960671,19 44.5342128,19 L44.5342128,19 Z" id="Path" fill="#FFD064"></path>
                <path d="M80.6923077,21.5 L80.6923077,19 L79.4615385,19 C78.1020308,19 77,20.11925 77,21.5 L77,26.5 L85,29 L93,26.5 L93,22.75 L81.9230769,22.75 C81.2434462,22.75 80.6923077,22.1905 80.6923077,21.5 Z" id="Path" fill="#FFC250"></path>
                <path d="M33.6923077,21.5 L33.6923077,19 L32.4615385,19 C31.1020308,19 30,20.11925 30,21.5 L30,26.5 L38,29 L46,26.5 L46,22.75 L34.9230769,22.75 C34.2434462,22.75 33.6923077,22.1905 33.6923077,21.5 Z" id="Path" fill="#FFC250"></path>
                <polygon id="Path" fill="#AB7B64" points="107.592073 37 14.4079275 37 12 79.1527757 14.4079275 116 107.592073 116 110 79.1527757"></polygon>
                <path d="M13.3827485,64.1075573 L30.1957278,64.1075573 C37.4332823,64.1075573 44.5714158,65.7824851 51.0448558,69 L70.7321852,69 C77.2056252,65.7824851 84.3437587,64.1075573 91.5813131,64.1075573 L108.617251,64.1075573 L116,37 L6,37 L13.3827485,64.1075573 Z" id="Path" fill="#9A6A53"></path>
                <polygon id="Path" fill="#9A6A53" points="14.4079275 118 55.5206406 118 60.8159139 115.5 66.1114281 118 107.592073 118 110 115.5 107.592073 113 66.1114281 113 60.8159139 115.5 55.5206406 113 14.4079275 113 12 115.5"></polygon>
                <path d="M110.853162,60 L117,63.1445381 L117,104.211238 L116.502338,107.380836 C116.502338,111.262924 111.811702,113.763273 108.665936,116 L107,113.543138 L107,64.3601936 L110.853162,60 Z" id="Path" fill="#B78C7A"></path>
                <path d="M11.8580812,116 C11.8580812,116 6,114.729772 6,110.821132 L6.59876029,45.2407723 C6.59876029,41.1421544 6.96191445,37 11.0496191,37 L14,37 L14,113.931025 L11.8580812,116 Z" id="Path" fill="#B78C7A"></path>
                <g id="Group" transform="translate(4.000000, 49.000000)" fill="#AB7B64">
                    <path d="M109.897934,62.6538269 C108.662173,63.5278964 107.187517,63.9970409 105.675487,63.9970409 L104.900908,63.9970409 L104.900908,68.8992819 L105.675487,68.8992819 C107.187273,68.8992819 108.662173,68.4301375 109.897934,67.5560679 C113.052434,65.3245678 114.928914,61.6932327 114.928914,57.8204623 L114.928914,52.9182213 C114.928914,56.7909917 113.052434,60.4220816 109.897934,62.6538269 Z" id="Path"></path>
                    <path d="M5.00752971,56.6463756 L5.00752971,14.9290397 L2.90265735,11.3540805 C2.90265735,10.6113909 0.122134871,13.7162253 0.122134871,13.7162253 L0.122134871,57.8202172 C0.122134871,61.6932327 1.99861503,65.3243227 5.15311448,67.5558228 C6.38887511,68.4298923 7.86353154,68.8990368 9.37556124,68.8990368 L10.371449,68.8990368 L10.371449,63.9967958 C7.17786637,62.9820319 5.00752971,60.0080874 5.00752971,56.6463756 L5.00752971,56.6463756 Z" id="Path"></path>
                    <path d="M107.600821,0.0227954208 L104.901152,0.0227954208 L104.901152,14.9290397 L110.898463,14.9290397 C112.387776,14.9290397 113.772541,14.4819553 114.928914,13.7162253 L114.928914,7.37615697 C114.928914,3.31489539 111.648127,0.0227954208 107.600821,0.0227954208 L107.600821,0.0227954208 Z" id="Path"></path>
                    <path d="M2.45051405,10.8501301 L2.20111465,13.2132554 C3.35748761,13.9792305 2.663273,14.9290397 4.15258562,14.9290397 L10.371449,14.9290397 L10.371449,9.24905816 L7.45022714,9.24905816 C3.40292178,9.24905816 2.45051405,6.78886849 2.45051405,10.8501301 Z" id="Path"></path>
                </g>
                <path d="M8.69727572,63.999507 L8.69727572,39.1473883 C8.69727572,38.4004492 8.80389854,37.6796406 9,37 C8.82738375,37.0549727 8.65782057,37.1175874 8.49084077,37.185872 C8.47487083,37.1922814 8.45890089,37.1989372 8.44293095,37.2055931 C8.1092062,37.3448739 7.7879286,37.5100386 7.48144669,37.6991153 C7.47275716,37.7045386 7.46406764,37.7094689 7.45537811,37.7148922 C7.30577736,37.8080747 7.15993424,37.9074201 7.0176139,38.0116957 C7.00281822,38.0225424 6.9882574,38.0336355 6.97369657,38.0444822 C6.69046501,38.2552521 6.42320338,38.4877154 6.17308596,38.7389137 C6.15852513,38.7534581 6.1439643,38.7677559 6.12963833,38.7823003 C6.00892438,38.905804 5.89220291,39.0337451 5.78017849,39.1661234 C5.76679192,39.1819004 5.75410991,39.1979238 5.7409582,39.2137007 C5.62893377,39.3482977 5.52043213,39.4863458 5.41756693,39.6290778 C5.41639267,39.6305568 5.41521841,39.6320359 5.414279,39.633515 C5.31258807,39.7752609 5.21700329,39.9219371 5.12494129,40.0713249 C5.1096759,40.0959763 5.09441052,40.1208743 5.07961484,40.1457723 C4.99131047,40.2929415 4.90723344,40.4433153 4.82879286,40.5971404 C4.81916393,40.6158755 4.8104744,40.6351037 4.80108032,40.6540853 C4.72780648,40.801008 4.65922969,40.9506423 4.59534993,41.1029883 C4.58736496,41.1222164 4.57844058,41.1409515 4.57069047,41.1601797 C4.5054016,41.3194281 4.44645373,41.4818812 4.39173321,41.6465529 C4.38093001,41.6793393 4.37036167,41.7123723 4.35979333,41.7456518 C4.30695162,41.9122956 4.25833725,42.0809116 4.21700329,42.2527322 C4.21324566,42.2680161 4.21042743,42.2835465 4.20690465,42.2988304 C4.16862377,42.46153 4.13621419,42.6266948 4.10826679,42.7935851 C4.10310005,42.8248925 4.09722875,42.8557068 4.09229685,42.8870142 C4.06552372,43.0603139 4.04485674,43.2358323 4.02982621,43.4130762 C4.02677313,43.4493139 4.02442461,43.485798 4.02184124,43.5222822 C4.00892438,43.7059355 4,43.8908214 4,44.0781725 L4,62.780246 C5.11178957,63.550604 6.44316581,64 7.87505871,64 L8.69727572,64 L8.69727572,63.999507 Z" id="Path" fill="#9A6A53"></path>
                <path d="M111.833762,57.1083784 L90.5975747,56.9527027 C83.4170337,56.9527027 76.5162921,58.8006216 70.0938463,62 L50.5616029,62 C50.5616029,62 38.017752,57.1993514 30.837211,57.1993514 L7.93028413,57.5744324 C4.21061252,57.3603784 1.23634015,54.4142162 1,50.7096216 L1.08179127,31.1487297 C1.08179127,29.1337027 1.29542518,26 3.31823315,26 L6.98052879,26 L60.2520372,30.8648649 L113.675409,26 L117.337704,26 C119.360268,26 121,27.6336216 121,29.6486486 L121,51.5405405 C121,55.5705946 115.879134,57.1083784 111.833762,57.1083784 Z" id="Path" fill="#B78C7A"></path>
                <path d="M114,27 L114,47.3583171 L111.990511,49.0536636 C111.990511,49.7162983 111.443358,50.253654 110.768641,50.253654 L87.6779707,50.502532 C80.4909267,50.502532 76.8077194,53.8433053 70.3794572,57 L50.8295246,57 C44.4012624,53.8433053 36.9016638,50.0138959 29.7146199,50.0138959 L10.6221557,49.4827801 C9.94743861,49.4827801 9.40028487,48.9454244 9.40028487,48.2827897 L9,29.8979768 L12.0959762,27 L114,27 Z" id="Path" fill="#AB7B64"></path>
                <path d="M113.696177,56.4193548 L90.86467,56.4193548 C83.7044889,56.4193548 76.642666,58.0979742 70.2384306,61.3225806 L50.7615694,61.3225806 C44.357334,58.0979742 37.2955111,56.4193548 30.13533,56.4193548 L7.30382294,56.4193548 C7.29311066,56.4193548 7.28239839,56.4193548 7.27168612,56.4193548 C5.2923501,56.4107742 3.66067606,54.7674581 3.65191147,52.7742968 C3.65191147,52.7635097 3.65191147,52.7527226 3.65191147,52.7419355 L3.65191147,27 C1.63508249,27 0,28.6465032 0,30.6774194 L0,49.0645161 L0,51.2067355 L0,52.7419355 C0,56.8040129 3.26992153,60.0967742 7.30382294,60.0967742 L8.82837425,60.0967742 L10.9557344,60.0967742 L30.13533,60.0967742 C37.2955111,60.0967742 44.357334,61.7753935 50.7615694,65 L70.2384306,65 C76.642666,61.7753935 83.7044889,60.0967742 90.86467,60.0967742 L113.696177,60.0967742 C117.730078,60.0967742 121,56.8040129 121,52.7419355 L121,49.0645161 C121,53.1265935 117.730078,56.4193548 113.696177,56.4193548 L113.696177,56.4193548 Z" id="Path" fill="#AB7B64"></path>
                <path d="M92.0380938,47.4 C84.8370183,47.4 77.7348627,49.04328 71.2940503,52.2 L51.7059497,52.2 C45.2651373,49.04328 38.1629817,47.4 30.9619062,47.4 L14.1212815,47.4 C13.4452471,47.4 12.8970252,46.86264 12.8970252,46.2 L12.8970252,27 L8,27 L8,46.2 L8,51 C8,51.66264 8.54822197,52.2 9.22425629,52.2 L14.1212815,52.2 L30.9619062,52.2 C38.1629817,52.2 45.2651373,53.84328 51.7059497,57 L71.2940503,57 C77.7348627,53.84328 84.8370183,52.2 92.0380938,52.2 L113.775744,52.2 C114.451778,52.2 115,51.66264 115,51 L115,47.35848 L92.0380938,47.4 Z" id="Path" fill="#9A6A53"></path>
                <polygon id="Path" fill="#FFC250" points="66 115 56 115 56 99.3441984 59.6907442 95.1831848 61.9366119 95 66 99.3779989"></polygon>
                <polygon id="Path" fill="#EBB044" points="56 113 66 113 66 118 56 118"></polygon>
                <path d="M56,99.3615327 C57.6285838,99.7785519 59.3260578,100 61.0708228,100 C62.7651138,100 64.4146147,99.7909928 66,99.3971137 L66,76 L56,76 L56,99.3615327 Z" id="Path" fill="#EBB044"></path>
                <g id="Group" transform="translate(37.000000, 47.000000)">
                    <path d="M47.9037877,23.9713551 C47.9037877,10.7896067 37.2179743,0.103793294 24.0362259,0.103793294 C17.863952,0.103793294 12.2390409,2.44673108 8.00187549,6.29173409 C3.19017503,10.6581515 0.658255115,16.9618806 0.658255115,23.9713551 C0.658255115,37.1531035 10.8544775,47.3493259 24.0362259,47.3493259 C30.0865916,47.3493259 35.6111366,45.5875326 39.8179474,41.8769224 C44.7762803,37.5034059 47.9037877,31.102493 47.9037877,23.9713551 Z" id="Path" fill="#FFD064"></path>
                    <path d="M27.2185675,44.9013708 C14.0368191,44.9013708 3.35100568,34.2155574 3.35100568,21.033809 C3.35100568,14.87965 5.68072451,9.26991621 9.50565428,5.03715712 C3.82860171,9.40039221 0.168664103,16.2578487 0.168664103,23.9713551 C0.168664103,37.1531035 10.8544775,47.8389169 24.0362259,47.8389169 C31.0638153,47.8389169 37.3812529,44.8012495 41.7488943,39.968007 C37.7244562,43.0609982 32.6868095,44.9013708 27.2185675,44.9013708 L27.2185675,44.9013708 Z" id="Path" fill="#FFC250"></path>
                    <path d="M40.5599225,23.9713551 C40.5599225,14.8456234 33.1619576,7.44765847 24.0362259,7.44765847 C20.3332043,7.44765847 16.9148799,8.6657609 14.1597064,10.7230223 C10.1249869,13.7359654 8.00212029,18.5486451 8.00212029,23.9713551 C8.00212029,33.0970868 14.9104943,40.0054607 24.0362259,40.0054607 C28.4163519,40.0054607 32.3984404,38.7907854 35.3553253,36.0091741 C38.5594537,32.9954966 40.5599225,28.7169608 40.5599225,23.9713551 Z" id="Path" fill="#FFC250"></path>
                    <path d="M27.463363,37.5575057 C18.3376313,37.5575057 10.9396664,30.1595407 10.9396664,21.033809 C10.9396664,16.8282222 12.5134567,12.9920319 15.1009452,10.0752934 C10.5372225,13.0160218 7.51252927,18.1388574 7.51252927,23.9713551 C7.51252927,33.0970868 14.9104943,40.4950517 24.0362259,40.4950517 C28.9563708,40.4950517 33.3717473,38.3420753 36.3986437,34.9298707 C33.8219263,36.5900738 30.7565969,37.5575057 27.463363,37.5575057 Z" id="Path" fill="#EBB044"></path>
                    <path d="M26.0398771,22.1417535 C25.5777032,21.9784749 25.1610613,21.8546084 24.7933784,21.7451848 C23.7862897,21.4455551 23.42081,21.3214438 23.0817682,20.9172864 C22.9980482,20.8176546 22.8969476,20.503582 22.9818917,20.0852264 C23.0259549,19.8683376 23.1855615,19.3346834 23.7182365,19.062226 C24.4871392,18.6690844 25.3811324,19.3780122 25.4805194,19.4600187 C26.2616619,20.1057893 27.4192998,19.9953865 28.0653151,19.2135097 C28.7110857,18.4316328 28.6006829,17.2744845 27.8185613,16.6287139 C27.2890686,16.1912643 26.6293447,15.8032635 25.8947134,15.5538168 L25.8947134,15.133503 C25.8947134,14.11956 25.0729349,13.2975367 24.0587471,13.2975367 C23.0445593,13.2975367 22.2227808,14.11956 22.2227808,15.133503 L22.2227808,15.7124443 C22.1640299,15.7396166 22.1055238,15.7628722 22.0467728,15.7927373 C20.6702877,16.4965243 19.6994287,17.7949197 19.3831529,19.355491 C19.0903775,20.8012533 19.421341,22.2673336 20.2693127,23.2776046 C21.3344179,24.5466245 22.5603538,24.9113698 23.7461432,25.264365 C24.0883674,25.3661999 24.4420969,25.471462 24.8173684,25.6038963 C25.771826,25.9409797 25.8694995,26.625428 25.7828418,27.1402329 C25.6587305,27.8792706 25.0359708,28.6777935 23.9622977,28.6848926 C22.6996424,28.69395 22.4029503,28.6464597 21.4786025,28.0425492 C20.6296517,27.4878425 19.4920869,27.7262734 18.9373803,28.5752242 C18.3826737,29.4239302 18.6211045,30.5617397 19.4700553,31.1164463 C20.5057851,31.7933059 21.3170374,32.1130088 22.2222912,32.2549902 L22.2222912,32.7644097 C22.2222912,33.7783527 23.0440697,34.600376 24.0582575,34.600376 C25.0724453,34.600376 25.8942238,33.7783527 25.8942238,32.7644097 L25.8942238,32.0094603 C27.854791,31.2809489 29.1086336,29.5054471 29.403857,27.748305 C29.8231917,25.253594 28.4711861,23.0004961 26.0398771,22.1417535 L26.0398771,22.1417535 Z" id="Path" fill="#FFD064"></path>
                </g>
            </g>
        </g>
    </g>
</svg>