<?xml version="1.0" encoding="UTF-8"?>
<svg width="125px" height="120px" viewBox="0 0 125 120" version="1.1" xmlns="http://www.w3.org/2000/svg" xmlns:xlink="http://www.w3.org/1999/xlink">
    <title>credit-card (1)</title>
    <g id="Design" stroke="none" stroke-width="1" fill="none" fill-rule="evenodd">
        <g id="Courses_1440" transform="translate(-139.000000, -806.000000)" fill-rule="nonzero">
            <g id="credit-card-(1)" transform="translate(201.500000, 866.000000) rotate(-4.000000) translate(-201.500000, -866.000000) translate(143.000000, 810.000000)">
                <g id="Group" transform="translate(1.000000, 54.000000)">
                    <g transform="translate(14.871827, 17.208110)" id="Path">
                        <path d="M85.3765176,2.69020124 L30.595769,35.3901517 C23.4764188,39.5537974 19.7524038,39.4691909 15.642137,32.2577977 L0.153132213,2.38595229 C-2.12733441,-1.61517235 89.3265737,0.380251436 85.3765176,2.69020124 Z" fill="#E9EDF1"></path>
                        <polygon fill="#F7F9FA" points="45.4316613 6.01829756 45.6640731 8.99769064 15.642137 26.5549821 12.2456221 25.7072437 7.78378825 17.6531311 9.00861 14.7036132 18.7656566 8.99769064 32.6039481 4.21766002"></polygon>
                        <path d="M25.3562406,31.1208674 C24.7446555,31.1208674 24.149823,30.7994103 23.822087,30.2243726 C23.3334325,29.3670741 23.6234163,28.2707741 24.4697726,27.7758019 L49.9258205,12.8886356 C50.7721768,12.3934244 51.8544841,12.6871573 52.3431387,13.5446948 C52.8317932,14.4019933 52.5418094,15.4982933 51.6954531,15.9932655 L26.2394053,30.8804318 C25.9607471,31.0434309 25.6563703,31.1208674 25.3562406,31.1208674 Z" fill="#DCE6EB"></path>
                    </g>
                    <path d="M0.0236646893,0.674462321 L14.5759439,26.2055619 L19.3414467,34.5663135 L23.7424052,40.3284014 L26.0660508,46.364146 L30.2695183,53.7387773 C32.5499849,57.7396629 37.6007525,59.1105757 41.5505726,56.8006259 L93.8663409,26.2055619 L111.876482,15.6730034 C114.896655,13.9070211 -1.89461712,-2.69115724 0.0236646893,0.674462321 Z M40.6079482,51.662571 C37.415059,53.1575256 35.1860297,52.0896667 33.6374832,49.3437781 L30.5139635,43.7630924 L26.4095955,38.4118481 L23.8806725,31.9117234 L21.6856201,27.9901863 C21.2396727,27.1935942 21.8078428,26.2058009 22.7120071,26.2058009 L33.6377191,26.2058009 L48.1937736,25.4887963 L60.5361356,26.2058009 L79.6422695,26.2058009 C80.8486871,26.2058009 81.2774101,27.8231243 80.2330909,28.4352072 L40.6079482,51.662571 Z" id="Shape" fill="#DCE6EB"></path>
                    <g transform="translate(19.347984, 7.409047)" fill="#E9EDF1" id="Path">
                        <polygon points="4.53245276 24.502676 -0.00111016799 27.154159 6.72349395 38.9519915 11.1659798 36.3540449"></polygon>
                        <path d="M46.2037627,0.132884851 L14.2897354,18.7967534 L41.1881518,18.7967534 L67.6215088,3.33813439 C61.1080809,2.31329582 53.7768467,1.2167568 46.2037627,0.132884851 Z"></path>
                    </g>
                </g>
                <g id="Group">
                    <path d="M108.760345,0.1525782 L8.23942004,0.1525782 C7.18995334,0.1525782 6.18639198,0.349019685 5.26334152,0.707472335 C5.07501192,0.782228578 4.88974268,0.863352072 4.70847544,0.951078642 C1.93061382,2.29126707 2.17426524,6.19085458 2.17638395,9.49074137 C2.17638395,9.49074137 1.71568266,66.2736501 1.71568266,66.2736501 C1.71568266,70.8321302 5.40458872,74.527494 9.95510271,74.527494 L106.318651,73.8556311 C109.612536,73.8683656 114.881292,73.895957 116.20266,71.1368149 C116.720801,70.0548539 117.007533,68.8514434 116.999918,67.5982741 L116.999918,8.40642211 C116.999918,3.84794203 113.310859,0.1525782 108.760345,0.1525782 Z" id="Path" fill="#F7F9FA"></path>
                    <path d="M116.201718,71.1363433 C114.881057,73.8954854 112.053758,75.8646167 108.760345,75.8528782 L8.23942004,75.8528782 C3.68890606,75.8528782 -2.14816509e-06,72.1574617 -2.14816509e-06,67.5989816 L-2.14816509e-06,8.40712958 C-0.00235412001,5.10795026 1.93037841,2.28985212 4.70824002,0.95037117 L4.70824002,67.5989816 C4.70824002,69.549247 6.29256279,71.1363433 8.23942004,71.1363433 L116.201718,71.1363433 Z" id="Path" fill="#E9EDF1"></path>
                    <g transform="translate(11.535188, 10.140437)" id="Path">
                        <path d="M15.6047553,19.8007357 L2.14130756,19.0491643 L1.510148,6.67594477 C1.510148,4.65186642 1.48450808,1.07983861 3.2719914,0.410569778 C3.78495416,0.218608951 4.34029107,0.113667222 4.91987541,0.113667222 L5.50840542,0.113667222 L7.27399542,2.47190834 L9.03958543,0.113667222 L17.8675355,0.113667222 C20.4678964,0.113667222 22.5757755,2.22523632 22.5757755,4.83014945 L22.5757755,5.41970973 L20.2216555,7.24310176 L22.5757755,8.95707141 L22.5757755,12.4944331 L20.2216555,14.2574541 L22.5757755,16.0317948 L22.5757755,16.621355 C22.5757755,17.2012465 22.4712526,17.7568481 22.280098,18.2700014 C21.612705,20.0615572 17.6262382,19.8007357 15.6047553,19.8007357 Z" fill="#FFC250"></path>
                        <path d="M22.280098,18.2697656 L17.2790055,18.270473 L15.8050909,18.506533 L13.7478255,18.2709447 L9.03958543,18.2716522 L7.27399542,18.9795961 C7.2205569,18.9795961 5.56066688,18.270473 5.50817,18.2669357 C4.31204163,18.1884063 3.35532725,17.2302529 3.27717047,16.0320306 C3.27363929,15.9794418 2.84259991,14.1956682 2.84259991,14.1421361 L3.2719914,12.4944331 L3.2719914,8.95707141 L3.0365794,7.18839057 L3.2719914,5.41970973 L3.2719914,0.410805602 C1.54030072,1.09658212 0.211635389,2.72353266 0.211635389,4.83014945 L0.211635389,5.41970973 L0.44704739,7.18839057 L0.211635389,8.95707141 L0.211635389,12.4944331 L0.44704739,14.102046 L0.211635389,16.0317948 L0.211635389,16.621355 C0.211635389,19.2262682 2.31951445,21.3378373 4.91987541,21.3378373 L5.50840542,21.3378373 L7.27399542,18.9795961 L9.03958543,21.3378373 L13.7478255,21.3378373 L15.6850308,21.1020132 L17.2790055,21.3378373 L17.8675355,21.3378373 C19.9702355,21.3376014 21.7506564,19.8919996 22.280098,18.2697656 L22.280098,18.2697656 Z" fill="#EBB044"></path>
                        <path d="M66.6453729,54.3645324 L61.9371329,54.3645324 C60.9620564,54.3645324 60.1715429,53.5726351 60.1715429,52.5958516 C60.1715429,51.6190681 60.9620564,50.8271708 61.9371329,50.8271708 L66.6453729,50.8271708 C67.6204495,50.8271708 68.410963,51.6190681 68.410963,52.5958516 C68.410963,53.5726351 67.6204495,54.3645324 66.6453729,54.3645324 Z" fill="#5F6C75"></path>
                        <path d="M45.8420144,54.3645324 L41.1337744,54.3645324 C40.1586979,54.3645324 39.3681844,53.5726351 39.3681844,52.5958516 C39.3681844,51.6190681 40.1586979,50.8271708 41.1337744,50.8271708 L45.8420144,50.8271708 C46.8170909,50.8271708 47.6076044,51.6190681 47.6076044,52.5958516 C47.6076044,53.5726351 46.8173263,54.3645324 45.8420144,54.3645324 Z" fill="#5F6C75"></path>
                        <path d="M51.8746823,57.9021299 C51.5752383,57.9021299 51.2715568,57.8257229 50.9935352,57.6648909 C50.1491124,57.1764991 49.859791,56.0947739 50.3473293,55.2488729 L54.4246651,48.1741495 C54.9122034,47.3282484 55.9918028,47.0381848 56.8364611,47.5268123 C57.6808839,48.0152041 57.9702053,49.0969293 57.482667,49.9428303 L53.4053312,57.0175537 C53.0783439,57.5849465 52.4848703,57.9021299 51.8746823,57.9021299 Z" fill="#5F6C75"></path>
                        <g fill="#FFD064">
                            <path d="M17.2790055,11.7867249 L17.2790055,9.54639586 C17.2790055,9.22072276 17.5424315,8.95683558 17.8675355,8.95683558 L22.5757755,8.95683558 L22.5757755,5.41947391 L17.8675355,5.41947391 C15.5922785,5.41947391 13.7478255,7.26715582 13.7478255,9.54639586 L13.7478255,21.3376014 L17.2790055,21.3376014 L17.2790055,16.7390313 C17.2790055,16.3482707 17.5951638,16.0315589 17.9852415,16.0315589 L22.5757755,16.0315589 L22.5757755,12.4941973 L17.9852415,12.4941973 C17.5951638,12.4941973 17.2790055,12.1774855 17.2790055,11.7867249 Z"></path>
                            <path d="M5.50840542,9.66430792 L5.50840542,11.7867249 C5.50840542,12.1774855 5.1922471,12.4941973 4.80216941,12.4941973 L0.211635389,12.4941973 L1.7418134,14.2628781 L0.211635389,16.0315589 L4.80216941,16.0315589 C5.1922471,16.0315589 5.50840542,16.3482707 5.50840542,16.7390313 L5.50840542,21.3376014 L9.03958543,21.3376014 L9.03958543,0.113431398 L5.50840542,0.113431398 L5.50840542,4.71200157 C5.50840542,5.10276213 5.1922471,5.41947391 4.80216941,5.41947391 L0.211635389,5.41947391 L0.818998352,7.39827403 L0.211635389,8.95683558 L4.80216941,8.95683558 C5.1922471,8.95683558 5.50840542,9.27354736 5.50840542,9.66430792 Z"></path>
                        </g>
                        <g transform="translate(0.000000, 5.417046)" fill="#FFC250">
                            <polygon points="17.2790055 12.8548419 13.7478255 12.8548419 13.7478255 15.9205553 17.2790055 15.9205553"></polygon>
                            <g>
                                <path d="M3.2719914,10.4555674 L3.2719914,7.07715114 L0.211635389,7.07715114 L0.211635389,10.6145128 L3.27999541,10.6145128 C3.27646423,10.5616882 3.2719914,10.5093353 3.2719914,10.4555674 L3.2719914,10.4555674 Z"></path>
                                <polygon points="0.211635389 0.0024277908 3.2719914 0.0024277908 3.2719914 3.53978946 0.211635389 3.53978946"></polygon>
                                <path d="M9.03958543,12.8548419 L5.6670731,12.8548419 C5.61339917,12.8548419 5.5611377,12.8503612 5.50840542,12.8468239 L5.50840542,15.9205553 L9.03958543,15.9205553 L9.03958543,12.8548419 Z"></path>
                            </g>
                        </g>
                        <path d="M52.9502798,7.67937637 L91.6581335,8.12083911 L93.7179885,6.00903419 L93.7179885,1.29255196 C93.7179885,0.641441583 93.190901,0.113431398 92.5409285,0.113431398 L54.8750083,0.113431398 L53.3511864,1.73849535 L52.9502798,7.67937637 Z" fill="#B3E59F"></path>
                        <g transform="translate(0.706236, 31.128783)" fill="#6D7C84">
                            <path d="M14.67323,6.48021076 L0.773799248,6.52525317 C0.383721562,6.52525317 0.0675632443,6.20854139 0.0675632443,5.81778083 L0.112526937,1.25694251 C0.112526937,0.866181962 0.428685254,0.54947018 0.81876294,0.54947018 L3.03634399,0.105885026 L15.2777681,0.105885026 C15.6678457,0.105885026 15.9840041,0.422596808 15.9840041,0.813357361 L15.9840041,3.6432467 L15.3792306,5.7725026 C15.379466,6.16349898 15.0633077,6.48021076 14.67323,6.48021076 Z"></path>
                            <path d="M91.9884165,6.60071688 L77.6082744,6.59576458 C77.2181967,6.59576458 76.9020384,6.27905279 76.9020384,5.88829224 L76.866962,1.05649202 C76.866962,0.665731467 77.1831204,0.349019685 77.573198,0.349019685 L80.063857,0.10612085 L92.3052811,0.10612085 C92.6953588,0.10612085 93.0115171,0.422832632 93.0115171,0.813593185 L93.0115171,3.64348252 L92.6946525,5.89324455 C92.6946525,6.28376928 92.3784942,6.60071688 91.9884165,6.60071688 Z"></path>
                            <path d="M91.3372669,23.943222 L77.9788129,24.106884 C77.5887352,24.106884 77.2725769,23.7901722 77.2725769,23.3994116 L77.2125469,19.1847631 C77.2125469,18.7940026 77.5287052,18.4772908 77.9187829,18.4772908 L80.063857,17.929943 L92.3052811,17.929943 C92.6953588,17.929943 93.0115171,18.2466548 93.0115171,18.6374154 L93.0115171,21.4673047 L92.0435029,23.2359855 C92.0435029,23.6265103 91.7273446,23.943222 91.3372669,23.943222 Z"></path>
                            <path d="M66.1783155,6.58562414 L51.7129543,6.52548899 C51.452824,6.52548899 51.2421303,6.31442641 51.2421303,6.05384077 L51.2021103,1.0161661 C51.2021103,0.755580453 51.412804,0.544517874 51.6729343,0.544517874 L54.1685369,0.10612085 L66.6453729,0.10612085 C66.9055032,0.10612085 67.1161969,0.31718343 67.1161969,0.577769073 L67.1161969,3.64348252 L66.6491395,6.11397592 C66.6491395,6.37432574 66.4384458,6.58562414 66.1783155,6.58562414 Z"></path>
                            <path d="M39.6970549,6.44012066 L25.9981952,6.47525846 C25.6081175,6.47525846 25.2919592,6.15854667 25.2919592,5.76778612 L25.3971883,1.09634629 C25.3971883,0.705585742 25.7133467,0.38887396 26.1034243,0.38887396 L28.2734522,0.105885026 L40.5148762,0.105885026 C40.9049539,0.105885026 41.2211122,0.422596808 41.2211122,0.813357361 L41.2211122,3.6432467 L40.4035264,5.7324125 C40.4032909,6.12340888 40.0871326,6.44012066 39.6970549,6.44012066 L39.6970549,6.44012066 Z"></path>
                            <path d="M28.9782757,24.2724325 L0.773799248,24.106884 C0.383721562,24.106884 0.0675632443,23.7901722 0.0675632443,23.3994116 L0.0675632443,19.2298055 C0.0675632443,18.839045 0.383721562,18.5223332 0.773799248,18.5223332 L3.0365794,17.9297072 L29.4027235,17.9297072 C29.7928012,17.9297072 30.1089595,18.246419 30.1089595,18.6371795 L30.1089595,21.4670689 L29.6845117,23.5649602 C29.6845117,23.9557207 29.3683534,24.2724325 28.9782757,24.2724325 L28.9782757,24.2724325 Z"></path>
                        </g>
                        <path d="M56.0518329,6.00903419 C55.4018604,6.00903419 54.8747729,5.481024 54.8747729,4.82991363 L54.8747729,0.113431398 L52.5206529,0.113431398 C51.8706803,0.113431398 51.3435929,0.641441583 51.3435929,1.29255196 L51.3435929,8.3672753 C51.3435929,9.01838567 51.8706803,9.54639586 52.5206529,9.54639586 L92.5406931,9.54639586 C93.1906656,9.54639586 93.7177531,9.01838567 93.7177531,8.3672753 L93.7177531,6.00903419 L56.0518329,6.00903419 Z" fill="#95D6A4"></path>
                        <path d="M4.44905141,34.7720294 C4.05897372,34.7720294 3.74281541,34.4553176 3.74281541,34.0645571 L3.74281541,31.2346678 L0.917871393,31.2346678 C0.527793707,31.2346678 0.211635389,31.5513795 0.211635389,31.9421401 L0.211635389,37.6019188 C0.211635389,37.9926793 0.527793707,38.3093911 0.917871393,38.3093911 L15.9842395,38.3093911 C16.3743172,38.3093911 16.6904755,37.9926793 16.6904755,37.6019188 L16.6904755,34.7720294 L4.44905141,34.7720294 Z" fill="#5F6C75"></path>
                        <path d="M81.476329,34.7720294 C81.0862513,34.7720294 80.770093,34.4553176 80.770093,34.0645571 L80.770093,31.2346678 L77.945149,31.2346678 C77.5550713,31.2346678 77.238913,31.5513795 77.238913,31.9421401 L77.238913,37.6019188 C77.238913,37.9926793 77.5550713,38.3093911 77.945149,38.3093911 L93.0115171,38.3093911 C93.4015948,38.3093911 93.7177531,37.9926793 93.7177531,37.6019188 L93.7177531,34.7720294 L81.476329,34.7720294 Z" fill="#5F6C75"></path>
                        <path d="M81.476329,52.5958516 C81.0862513,52.5958516 80.770093,52.2791398 80.770093,51.8883793 L80.770093,49.0584899 L77.945149,49.0584899 C77.5550713,49.0584899 77.238913,49.3752017 77.238913,49.7659623 L77.238913,55.4257409 C77.238913,55.8165015 77.5550713,56.1332133 77.945149,56.1332133 L93.0115171,56.1332133 C93.4015948,56.1332133 93.7177531,55.8165015 93.7177531,55.4257409 L93.7177531,52.5958516 L81.476329,52.5958516 Z" fill="#5F6C75"></path>
                        <path d="M55.3455969,34.7720294 C55.0854666,34.7720294 54.8747729,34.560731 54.8747729,34.3003812 L54.8747729,31.2346678 L51.8144169,31.2346678 C51.5542866,31.2346678 51.3435929,31.4457303 51.3435929,31.706316 L51.3435929,37.8377429 C51.3435929,38.0980927 51.5542866,38.3093911 51.8144169,38.3093911 L67.351609,38.3093911 C67.6117392,38.3093911 67.822433,38.0980927 67.822433,37.8377429 L67.822433,34.7720294 L55.3455969,34.7720294 Z" fill="#5F6C75"></path>
                        <path d="M29.6856888,34.7720294 C29.2956111,34.7720294 28.9794528,34.4553176 28.9794528,34.0645571 L28.9794528,31.2346678 L26.1545087,31.2346678 C25.7644311,31.2346678 25.4482727,31.5513795 25.4482727,31.9421401 L25.4482727,37.6019188 C25.4482727,37.9926793 25.7644311,38.3093911 26.1545087,38.3093911 L41.2208768,38.3093911 C41.6109545,38.3093911 41.9271128,37.9926793 41.9271128,37.6019188 L41.9271128,34.7720294 L29.6856888,34.7720294 Z" fill="#5F6C75"></path>
                        <path d="M4.44905141,52.5958516 C4.05897372,52.5958516 3.74281541,52.2791398 3.74281541,51.8883793 L3.74281541,49.0584899 L0.917871393,49.0584899 C0.527793707,49.0584899 0.211635389,49.3752017 0.211635389,49.7659623 L0.211635389,55.4257409 C0.211635389,55.8165015 0.527793707,56.1332133 0.917871393,56.1332133 L30.1089595,56.1332133 C30.4990372,56.1332133 30.8151955,55.8165015 30.8151955,55.4257409 L30.8151955,52.5958516 L4.44905141,52.5958516 Z" fill="#5F6C75"></path>
                    </g>
                </g>
            </g>
        </g>
    </g>
</svg>