<?xml version="1.0" encoding="UTF-8"?>
<svg width="112px" height="112px" viewBox="0 0 112 112" version="1.1" xmlns="http://www.w3.org/2000/svg" xmlns:xlink="http://www.w3.org/1999/xlink">
    <title>credit-card (2)</title>
    <g id="Design" stroke="none" stroke-width="1" fill="none" fill-rule="evenodd">
        <g id="Courses_1440" transform="translate(-403.000000, -809.000000)" fill-rule="nonzero">
            <g id="credit-card-(2)" transform="translate(403.000000, 809.000000)">
                <g id="Group" transform="translate(23.000000, 68.000000)">
                    <path d="M60.3416338,42.7278736 L9.01408451,43.1932255 C4.65802817,43.1932255 1.12676056,39.6239328 1.12676056,35.2211977 L1.7764507,10.0432199 C1.7764507,7.33470297 1.33633803,2.8713787 3.37915493,1.43067822 C4.65690141,0.529585554 6.21115493,0.000911114931 7.88732394,0.000911114931 L24.707831,0.000911114931 L33.8028169,4.55648577 L42.8989296,0.000911114931 L61.971831,0.000911114931 C66.3278873,0.000911114931 69.8591549,3.57020386 69.8591549,7.97293898 L69.8591549,35.9890398 C69.8591549,37.6402078 69.3624789,39.173842 68.5122254,40.446214 C67.0947606,42.5670618 63.064338,42.7278736 60.3416338,42.7278736 L60.3416338,42.7278736 Z" id="Path" fill="#F7F9FA"></path>
                    <path d="M68.4419155,40.5446144 L7.88732394,40.5446144 C5.39808451,40.5446144 3.38028169,38.5050836 3.38028169,35.9890398 L3.38028169,1.43227267 C1.33769014,2.87297316 0,5.26442207 0,7.97293898 L0,35.9890398 C0,40.3920027 3.53126761,43.9612954 7.88732394,43.9612954 L61.971831,43.9612954 C65.603831,43.9612954 67.8143099,41.4775961 68.4419155,40.5446144 Z" id="Path" fill="#E9EDF1"></path>
                    <path d="M15.4990423,18.6516615 L8.39323944,18.5352666 L7.96169014,13.1558163 L10.1408451,11.9185222 L15.7746479,11.9185222 C16.3968451,11.9185222 16.9014085,12.4285188 16.9014085,13.0574159 L16.9014085,16.4740968 L15.4990423,18.6516615 Z" id="Path" fill="#FFD064"></path>
                    <path d="M11.2676056,16.4743246 C10.6454085,16.4743246 10.1408451,15.964328 10.1408451,15.335431 L10.1408451,11.91875 L7.88732394,11.91875 C7.26512676,11.91875 6.76056338,12.4287465 6.76056338,13.0576436 L6.76056338,18.7518842 C6.76056338,19.3807813 7.26512676,19.8907778 7.88732394,19.8907778 L15.7746479,19.8907778 C16.3968451,19.8907778 16.9014085,19.3807813 16.9014085,18.7518842 L16.9014085,16.4740968 L11.2676056,16.4740968 L11.2676056,16.4743246 Z" id="Path" fill="#FFC250"></path>
                    <path d="M15.7746479,30.4259998 L6.76056338,30.4259998 C5.82692958,30.4259998 5.07042254,29.6611188 5.07042254,28.7176593 C5.07042254,27.7741998 5.82692958,27.0093188 6.76056338,27.0093188 L15.7746479,27.0093188 C16.7082817,27.0093188 17.4647887,27.7741998 17.4647887,28.7176593 C17.4647887,29.6611188 16.7082817,30.4259998 15.7746479,30.4259998 Z" id="Path" fill="#5F6C75"></path>
                    <path d="M33.8028169,37.2593618 L6.76056338,37.2593618 C5.82692958,37.2593618 5.07042254,36.4944808 5.07042254,35.5510213 C5.07042254,34.6075618 5.82692958,33.8426808 6.76056338,33.8426808 L33.8028169,33.8426808 C34.7364507,33.8426808 35.4929577,34.6075618 35.4929577,35.5510213 C35.4929577,36.4944808 34.7364507,37.2593618 33.8028169,37.2593618 Z" id="Path" fill="#5F6C75"></path>
                    <path d="M51.6169014,37.2593618 L47.1098592,37.2593618 C46.1762254,37.2593618 45.4197183,36.4944808 45.4197183,35.5510213 C45.4197183,34.6075618 46.1762254,33.8426808 47.1098592,33.8426808 L51.6169014,33.8426808 C52.5505352,33.8426808 53.3070423,34.6075618 53.3070423,35.5510213 C53.3070423,36.4944808 52.5503099,37.2593618 51.6169014,37.2593618 Z" id="Path" fill="#5F6C75"></path>
                    <path d="M63.1587606,37.2593618 L58.6517183,37.2593618 C57.7180845,37.2593618 56.9615775,36.4944808 56.9615775,35.5510213 C56.9615775,34.6075618 57.7180845,33.8426808 58.6517183,33.8426808 L63.1587606,33.8426808 C64.0923944,33.8426808 64.8489014,34.6075618 64.8489014,35.5510213 C64.8489014,36.4944808 64.092169,37.2593618 63.1587606,37.2593618 Z" id="Path" fill="#5F6C75"></path>
                    <path d="M31.5492958,30.4259998 L22.5352113,30.4259998 C21.6015775,30.4259998 20.8450704,29.6611188 20.8450704,28.7176593 C20.8450704,27.7741998 21.6015775,27.0093188 22.5352113,27.0093188 L31.5492958,27.0093188 C32.4829296,27.0093188 33.2394366,27.7741998 33.2394366,28.7176593 C33.2394366,29.6611188 32.4829296,30.4259998 31.5492958,30.4259998 Z" id="Path" fill="#5F6C75"></path>
                    <path d="M47.3239437,30.4259998 L38.3098592,30.4259998 C37.3762254,30.4259998 36.6197183,29.6611188 36.6197183,28.7176593 C36.6197183,27.7741998 37.3762254,27.0093188 38.3098592,27.0093188 L47.3239437,27.0093188 C48.2575775,27.0093188 49.0140845,27.7741998 49.0140845,28.7176593 C49.0140845,29.6611188 48.2575775,30.4259998 47.3239437,30.4259998 Z" id="Path" fill="#5F6C75"></path>
                    <path d="M63.0985915,30.4259998 L54.084507,30.4259998 C53.1508732,30.4259998 52.3943662,29.6611188 52.3943662,28.7176593 C52.3943662,27.7741998 53.1508732,27.0093188 54.084507,27.0093188 L63.0985915,27.0093188 C64.0322254,27.0093188 64.7887324,27.7741998 64.7887324,28.7176593 C64.7887324,29.6611188 64.0322254,30.4259998 63.0985915,30.4259998 Z" id="Path" fill="#5F6C75"></path>
                    <path d="M49.1380282,20.5404028 C48.7055775,20.5404028 48.2729014,20.3736687 47.9427606,20.0399729 C47.2827042,19.372809 47.2827042,18.2910878 47.9427606,17.6241517 L57.4075493,8.05767267 C58.067831,7.39050876 59.1378028,7.39050876 59.7978592,8.05767267 C60.4579155,8.72483658 60.4579155,9.80655778 59.7978592,10.4734939 L50.3330704,20.0399729 C50.0031549,20.3736687 49.5704789,20.5404028 49.1380282,20.5404028 L49.1380282,20.5404028 Z" id="Path" fill="#DC4955"></path>
                    <ellipse id="Oval" fill="#DC4955" cx="49.0907042" cy="9.21638308" rx="1.69014085" ry="1.7083405"></ellipse>
                    <ellipse id="Oval" fill="#DC4955" cx="58.651493" cy="18.8798958" rx="1.69014085" ry="1.7083405"></ellipse>
                    <path d="M24.7067042,0.000911114931 L31.0174648,7.3868643 C32.4854085,9.1047715 35.1202254,9.1047715 36.588169,7.3868643 L42.8978028,0.00227778733 C42.8975775,0.00159445113 42.8975775,0.00159445113 42.8971268,0.000911114931 L24.7067042,0.000911114931 Z" id="Path" fill="#E9EDF1"></path>
                </g>
                <g id="Group">
                    <path d="M109.120676,54.0870215 L1.41205634,53.3093567 L1.58467606,2.63084781 L3.15492958,3.24846607e-15 L109.746479,3.24846607e-15 C110.991099,3.24846607e-15 112,1.02339957 112,2.28590478 L112,51.660305 L109.120676,54.0870215 Z" id="Path" fill="#95D6A4"></path>
                    <path d="M4.73239437,51.4317145 C4.11019718,51.4317145 3.6056338,50.9199005 3.6056338,50.2887622 L3.6056338,0 L2.25352113,0 C1.00890141,0 0,1.02339957 0,2.28590478 L0,53.0318479 C0,54.2943531 1.00890141,55.3177527 2.25352113,55.3177527 L109.746479,55.3177527 C110.991099,55.3177527 112,54.2943531 112,53.0318479 L112,51.4317145 L4.73239437,51.4317145 Z" id="Path" fill="#78C2A4"></path>
                    <path d="M64.5802817,63.0322241 L60.3030986,63.0322241 L60.3030986,50.4970081 L58.9198873,47.7923256 L54.2305352,47.6172252 L52.4157746,63.0178229 L48.6433803,63.0301668 L48.1264225,63.1993238 C47.6063099,64.1555177 47.9231549,64.7843701 48.5536901,65.5250033 L56.3380282,74.0642292 L57.8532958,73.8248949 L59.1891831,72.2558499 L65.4332394,64.9222102 C66.0635493,64.181577 65.5450141,63.0322241 64.5802817,63.0322241 L64.5802817,63.0322241 Z" id="Path" fill="#BED9FD"></path>
                    <path d="M48.6436056,63.0303954 L48.0957746,63.0322241 C47.1310423,63.0322241 46.612507,64.181577 47.2430423,64.9222102 L55.4852958,74.6027883 C55.9346479,75.1306037 56.7414085,75.1306037 57.1907606,74.6027883 L57.8532958,73.8246663 L48.6436056,63.0303954 Z" id="Path" fill="#9EC8FC"></path>
                    <path d="M56.3380282,43.4335623 L55.300507,44.2802615 L54.3459155,43.4335623 L52.416,45.7194671 L52.416,46.8624195 L52.416,50.5966735 L52.416,63.0178229 L53.5427606,63.0178229 C54.1649577,63.0178229 54.6695211,62.5060088 54.6695211,61.8748705 L54.6695211,51.4275999 C54.6695211,51.162435 54.8908169,50.9564749 55.1517746,50.9715619 C55.4823662,50.9907635 55.8152113,51.0005929 56.1500845,51.0005929 C58.8338028,51.0005929 59.5788169,50.6737085 60.3033239,50.4967795 L60.3033239,45.7192385 L56.3380282,43.4335623 Z" id="Path" fill="#9EC8FC"></path>
                    <path d="M97.9623662,7.46805091 L14.0376338,7.46805091 C13.7850141,7.46805091 13.5567324,7.60406224 13.4381972,7.8164228 C12.0128451,10.3704642 9.80867606,12.4691534 7.12630986,13.826295 C6.90321127,13.9392187 6.76056338,14.1563797 6.76056338,14.3968569 L6.76056338,40.2348958 C6.76056338,40.4753729 6.90321127,40.6927625 7.12630986,40.8056862 C9.80867606,42.1630564 12.0126197,44.261517 13.4381972,46.8155584 C13.5567324,47.027919 13.7850141,47.1639303 14.0376338,47.1639303 L97.9623662,47.1639303 C98.2149859,47.1639303 98.4432676,47.027919 98.5618028,46.8155584 C99.9871549,44.261517 102.191324,42.1628279 104.87369,40.8056862 C105.096789,40.6927625 105.239437,40.4756015 105.239437,40.2348958 L105.239437,14.3968569 C105.239437,14.1563797 105.096789,13.9389902 104.87369,13.8260665 C102.191324,12.4686962 99.9873803,10.3702356 98.5618028,7.81619421 C98.4432676,7.60383365 98.2149859,7.46805091 97.9623662,7.46805091 Z" id="Path" fill="#B3E59F"></path>
                    <path d="M91.7183099,24.8016097 C91.7183099,22.2768278 89.700507,20.2298001 87.2112676,20.2298001 C86.7993239,20.2298001 86.4004507,20.2858048 86.0214085,20.3907278 C84.1095211,20.9201433 83.3156056,22.7772124 83.3156056,24.8843594 C83.3156056,27.4091412 84.5088451,28.529006 86.9978592,28.529006 C89.0228732,28.529006 90.9494085,28.0183349 91.5177465,26.1537223 C91.6482254,25.7264867 91.7183099,25.2722775 91.7183099,24.8016097 L91.7183099,24.8016097 Z" id="Path" fill="#95D6A4"></path>
                    <path d="M29.2957746,24.8016097 C29.2957746,22.2768278 27.2779718,20.2298001 24.7887324,20.2298001 C24.3767887,20.2298001 23.9779155,20.2858048 23.5988732,20.3907278 C21.6869859,20.9201433 20.8211831,22.694234 20.8211831,24.8013811 C20.8211831,27.3261629 22.0718873,28.4512852 24.5611268,28.4512852 C26.6084507,28.4512852 28.5647324,27.9883895 29.1139155,26.0917743 C29.2322254,25.6828259 29.2957746,25.249647 29.2957746,24.8016097 L29.2957746,24.8016097 Z" id="Path" fill="#95D6A4"></path>
                    <path d="M90.3661972,26.1731525 C87.8769577,26.1731525 85.8591549,24.1263534 85.8591549,21.601343 C85.8591549,21.1834796 85.9190986,20.7804746 86.0227606,20.3957568 C84.1113239,20.9254009 82.7042254,22.6946912 82.7042254,24.8016097 C82.7042254,27.3263915 84.7220282,29.3734192 87.2112676,29.3734192 C89.288338,29.3734192 91.0325634,27.9463289 91.5547042,26.0071958 C91.1754366,26.1121189 90.7783662,26.1731525 90.3661972,26.1731525 L90.3661972,26.1731525 Z" id="Path" fill="#78C2A4"></path>
                    <path d="M27.943662,26.1731525 C25.4544225,26.1731525 23.4366197,24.1263534 23.4366197,21.601343 C23.4366197,21.1834796 23.4965634,20.7804746 23.6002254,20.3957568 C21.6887887,20.9254009 20.2816901,22.6946912 20.2816901,24.8016097 C20.2816901,27.3263915 22.299493,29.3734192 24.7887324,29.3734192 C26.8658028,29.3734192 28.6100282,27.9463289 29.132169,26.0071958 C28.7529014,26.1121189 28.355831,26.1731525 27.943662,26.1731525 L27.943662,26.1731525 Z" id="Path" fill="#78C2A4"></path>
                    <path d="M31.5492958,37.1034348 L18.028169,37.1034348 C17.0947606,37.1034348 16.3380282,36.335828 16.3380282,35.3890062 C16.3380282,34.4421845 17.0947606,33.6745776 18.028169,33.6745776 L31.5492958,33.6745776 C32.4827042,33.6745776 33.2394366,34.4421845 33.2394366,35.3890062 C33.2394366,36.335828 32.4827042,37.1034348 31.5492958,37.1034348 Z" id="Path" fill="#95D6A4"></path>
                    <path d="M93.971831,37.1034348 L80.4507042,37.1034348 C79.5172958,37.1034348 78.7605634,36.335828 78.7605634,35.3890062 C78.7605634,34.4421845 79.5172958,33.6745776 80.4507042,33.6745776 L93.971831,33.6745776 C94.9052394,33.6745776 95.6619718,34.4421845 95.6619718,35.3890062 C95.6619718,36.335828 94.9052394,37.1034348 93.971831,37.1034348 Z" id="Path" fill="#95D6A4"></path>
                    <path d="M74.2138592,27.3753098 C74.2138592,39.1605205 66.1261972,48.7142309 56.1494085,48.7142309 C46.1726197,48.7142309 39.7212394,27.2470706 39.7212394,27.2470706 C39.7212394,27.2470706 46.1728451,6.03661734 56.1494085,6.03661734 C66.1259718,6.03661734 74.2138592,15.5903278 74.2138592,27.3753098 Z" id="Path" fill="#95D6A4"></path>
                    <path d="M58.3087324,48.5617611 C57.6006761,48.6648554 56.8809014,48.7151453 56.1498592,48.7151453 C46.1730704,48.7151453 38.084507,39.1596062 38.084507,27.3759956 C38.084507,15.589642 46.1730704,6.03684593 56.1498592,6.03684593 C56.8809014,6.03684593 57.6006761,6.08690724 58.3087324,6.19023014 C49.3480563,7.44770636 42.4022535,16.4541712 42.4022535,27.3759956 C42.4022535,38.295077 49.3480563,47.3042849 58.3087324,48.5617611 Z" id="Path" fill="#78C2A4"></path>
                    <path d="M58.536338,25.8270665 C57.9364507,25.6252211 57.3883944,25.4700082 56.9050141,25.3328539 C55.483493,24.9298489 54.8299718,24.7232031 54.2314366,24.0436036 C53.943662,23.7169478 53.8372958,23.1443287 53.9544789,22.5493077 C54.027493,22.1776196 54.3071549,21.2593716 55.3214648,20.765159 C56.8063099,20.0421273 58.3177465,21.1359328 58.6057465,21.3624659 C59.3428732,21.9424 60.4047324,21.8068458 60.9771268,21.0584406 C61.5490704,20.310264 61.4147606,19.2333742 60.6774085,18.6532116 C59.9193239,18.056819 58.9406197,17.5402045 57.8569014,17.2777827 L57.8569014,16.2891289 C57.8569014,15.3423071 57.1003944,14.5747003 56.1667606,14.5747003 C55.2331268,14.5747003 54.4766197,15.3423071 54.4766197,16.2891289 L54.4766197,17.4206517 C54.2701972,17.4933435 54.0637746,17.5742645 53.8582535,17.6743872 C52.1769014,18.4931982 51.0037183,20.0256688 50.6393239,21.8786232 C50.3136901,23.5338469 50.7141408,25.1975284 51.7106479,26.3283655 C52.9931268,27.7842582 54.4513803,28.1977784 55.9952676,28.6353006 C56.4642254,28.7681116 56.9489577,28.9057231 57.4722254,29.0817378 C59.3444507,29.7115045 59.3408451,31.0974486 59.2522817,31.6638958 C59.0602817,32.8930268 57.9745352,34.2213661 56.0439437,34.2334814 C54.2501408,34.2442251 53.6405634,34.1530175 52.2451831,33.2841451 C51.4492394,32.7890181 50.4085634,33.041382 49.9206761,33.848535 C49.432338,34.6554594 49.6811268,35.7110902 50.4768451,36.2064458 C52.0432676,37.1816128 53.1414085,37.5160406 54.4770704,37.6200493 L54.4770704,38.8142059 C54.4770704,39.7610277 55.2335775,40.5286345 56.1672113,40.5286345 C57.1008451,40.5286345 57.8573521,39.7610277 57.8573521,38.8142059 L57.8573521,37.4232329 C60.5491831,36.6992868 62.2424789,34.434641 62.5913239,32.1997119 C63.0420282,29.3089567 61.4505915,26.8074911 58.536338,25.8270665 L58.536338,25.8270665 Z" id="Path" fill="#B3E59F"></path>
                </g>
            </g>
        </g>
    </g>
</svg>