<?xml version="1.0" encoding="UTF-8"?>
<svg width="48px" height="48px" viewBox="0 0 48 48" version="1.1" xmlns="http://www.w3.org/2000/svg" xmlns:xlink="http://www.w3.org/1999/xlink">
    <title>Group 8</title>
    <g id="Design" stroke="none" stroke-width="1" fill="none" fill-rule="evenodd">
        <g id="Home_1440" transform="translate(-1328.000000, -34.000000)" fill-rule="nonzero">
            <g id="social" transform="translate(1216.000000, 34.000000)">
                <g id="Group-8" transform="translate(112.000000, 0.000000)">
                    <circle id="Oval" stroke="#45009B" cx="24" cy="24" r="23.5"></circle>
                    <path d="M24,17.4426667 C26.136,17.4426667 26.3893333,17.4506667 27.2333333,17.4893333 C29.4026667,17.588 30.4133333,18.616 30.5133333,20.768 C30.5506667,21.612 30.5586667,21.864 30.5586667,24 C30.5586667,26.136 30.5506667,26.3893333 30.5133333,27.232 C30.4133333,29.3826667 29.404,30.4133333 27.2333333,30.512 C26.3893333,30.5493333 26.1373333,30.5586667 24,30.5586667 C21.864,30.5586667 21.6106667,30.5506667 20.768,30.512 C18.5946667,30.412 17.588,29.38 17.488,27.232 C17.4506667,26.3893333 17.4413333,26.136 17.4413333,24 C17.4413333,21.864 17.4506667,21.6106667 17.488,20.768 C17.5866667,18.6146667 18.5973333,17.5866667 20.768,17.488 C21.6106667,17.4493333 21.864,17.4426667 24,17.4426667 Z M24,16 C21.8266667,16 21.556,16.0093333 20.7013333,16.0493333 C17.7946667,16.1826667 16.1813333,17.7946667 16.048,20.7013333 C16.0093333,21.556 16,21.828 16,24 C16,26.1733333 16.0093333,26.4453333 16.048,27.2986667 C16.1813333,30.204 17.7946667,31.8186667 20.7013333,31.952 C21.556,31.9906667 21.8266667,32 24,32 C26.1733333,32 26.4453333,31.9906667 27.3,31.952 C30.2013333,31.8186667 31.8213333,30.2066667 31.952,27.2986667 C31.9906667,26.4453333 32,26.1733333 32,24 C32,21.828 31.9906667,21.556 31.952,20.7013333 C31.8213333,17.7986667 30.2066667,16.1813333 27.3,16.0493333 C26.4453333,16.0093333 26.1733333,16 24,16 L24,16 Z M24,19.892 C21.732,19.892 19.892,21.7306667 19.892,24 C19.892,26.2693333 21.732,28.108 24,28.108 C26.268,28.108 28.108,26.2693333 28.108,24 C28.108,21.732 26.268,19.892 24,19.892 Z M24,26.6666667 C22.5266667,26.6666667 21.3333333,25.4733333 21.3333333,24 C21.3333333,22.528 22.5266667,21.3333333 24,21.3333333 C25.472,21.3333333 26.668,22.5266667 26.668,24 C26.668,25.4733333 25.472,26.6666667 24,26.6666667 Z M28.2693333,18.7706667 C27.74,18.7706667 27.3093333,19.2 27.3093333,19.7306667 C27.3093333,20.26 27.7386667,20.6906667 28.2693333,20.6906667 C28.8,20.6906667 29.2306667,20.2613333 29.2306667,19.7306667 C29.2306667,19.2 28.8013333,18.7706667 28.2693333,18.7706667 Z" id="instagram" fill="#45009B"></path>
                </g>
            </g>
        </g>
    </g>
</svg>